<svg width="73" height="73" viewBox="0 0 73 73" fill="none" xmlns="http://www.w3.org/2000/svg">
<path d="M34.8435 41.308H27.2775L25.9775 45H22.8835L29.3575 26.904H32.7895L39.2635 45H36.1435L34.8435 41.308ZM34.0115 38.89L31.0735 30.492L28.1095 38.89H34.0115ZM41.2984 28.75V26.046H46.7064V45H43.7164V28.75H41.2984Z" fill="black"/>
<path d="M61.1895 34.6062C61.6135 34.5774 61.9351 34.2102 61.8937 33.7872C61.4125 28.8718 59.5259 24.1983 56.46 20.3262C56.1962 19.9931 55.7098 19.952 55.3846 20.2256C55.0595 20.4993 55.0189 20.984 55.282 21.3177C58.1382 24.9389 59.8994 29.3021 60.3576 33.8914C60.3998 34.3142 60.7655 34.6349 61.1895 34.6062Z" fill="white" fill-opacity="0.6"/>
<path d="M55.0896 52.7032C55.4105 52.9833 55.8988 52.951 56.1693 52.6218C59.3036 48.8066 61.2738 44.1692 61.844 39.2646C61.8932 38.8414 61.5775 38.4675 61.1531 38.431C60.7286 38.3945 60.3562 38.7093 60.3062 39.1324C59.765 43.7105 57.9261 48.0391 55.0065 51.6067C54.7367 51.9364 54.7687 52.423 55.0896 52.7032Z" fill="white" fill-opacity="0.6"/>
<path d="M37.9811 61.1865C38.01 61.6122 38.3788 61.9351 38.8034 61.8935C43.7166 61.4119 48.3881 59.5262 52.2588 56.4621C52.5934 56.1972 52.6346 55.7088 52.3599 55.3823C52.0851 55.0559 51.5984 55.0151 51.2633 55.2793C47.6444 58.1328 43.2846 59.8927 38.6989 60.3511C38.2743 60.3935 37.9523 60.7607 37.9811 61.1865Z" fill="white" fill-opacity="0.6"/>
<path d="M19.8873 55.0861C19.6054 55.4089 19.638 55.9002 19.9692 56.1722C23.7826 59.3038 28.4168 61.2727 33.3181 61.8435C33.7439 61.893 34.1201 61.5754 34.1568 61.1484C34.1935 60.7214 33.8768 60.3467 33.4512 60.2963C28.8783 59.7548 24.5547 57.918 20.9905 55.0024C20.6587 54.7311 20.1692 54.7632 19.8873 55.0861Z" fill="white" fill-opacity="0.6"/>
<path d="M11.3993 37.9814C10.9745 38.0102 10.6523 38.3781 10.6939 38.8018C11.1752 43.7162 13.0614 48.3888 16.1265 52.2603C16.3908 52.5941 16.8781 52.6353 17.2038 52.3611C17.5295 52.087 17.5703 51.6014 17.3066 51.2671C14.4516 47.6469 12.691 43.2852 12.2327 38.6974C12.1904 38.2738 11.824 37.9526 11.3993 37.9814Z" fill="white" fill-opacity="0.6"/>
<g filter="url(#filter0_b_55_117)">
<path d="M17.4941 19.8812C17.1753 19.6028 16.6901 19.635 16.4214 19.962C13.2841 23.7792 11.3126 28.4199 10.7429 33.328C10.6941 33.7484 11.0077 34.12 11.4294 34.1562C11.8511 34.1925 12.2211 33.8797 12.2707 33.4594C12.8115 28.8757 14.6527 24.5418 17.5766 20.9705C17.8447 20.643 17.8129 20.1595 17.4941 19.8812Z" fill="white" fill-opacity="0.6"/>
</g>
<g filter="url(#filter1_b_55_117)">
<path d="M34.606 11.3955C34.5773 10.9729 34.2112 10.6524 33.7897 10.6936C28.8725 11.1745 24.1973 13.0617 20.3242 16.1291C19.9921 16.3921 19.9512 16.8769 20.2239 17.201C20.4967 17.525 20.9798 17.5655 21.3124 17.3032C24.9355 14.4449 29.3014 12.6826 33.8935 12.2247C34.315 12.1827 34.6346 11.8181 34.606 11.3955Z" fill="white" fill-opacity="0.6"/>
</g>
<path d="M52.7058 17.4948C52.9845 17.1755 52.9523 16.6898 52.6249 16.4207C48.8081 13.284 44.168 11.3127 39.2606 10.7429C38.8396 10.6941 38.4676 11.0081 38.4313 11.4303C38.395 11.8526 38.7082 12.223 39.1291 12.2727C43.7117 12.8136 48.0446 14.6544 51.6151 17.5774C51.9431 17.8458 52.4271 17.814 52.7058 17.4948Z" fill="#FB6D3A"/>
<defs>
<filter id="filter0_b_55_117" x="-1.26215" y="7.6926" width="31.0197" height="38.4665" filterUnits="userSpaceOnUse" color-interpolation-filters="sRGB">
<feFlood flood-opacity="0" result="BackgroundImageFix"/>
<feGaussianBlur in="BackgroundImage" stdDeviation="6"/>
<feComposite in2="SourceAlpha" operator="in" result="effect1_backgroundBlur_55_117"/>
<feBlend mode="normal" in="SourceGraphic" in2="effect1_backgroundBlur_55_117" result="shape"/>
</filter>
<filter id="filter1_b_55_117" x="8.04419" y="-1.30998" width="38.5635" height="30.7852" filterUnits="userSpaceOnUse" color-interpolation-filters="sRGB">
<feFlood flood-opacity="0" result="BackgroundImageFix"/>
<feGaussianBlur in="BackgroundImage" stdDeviation="6"/>
<feComposite in2="SourceAlpha" operator="in" result="effect1_backgroundBlur_55_117"/>
<feBlend mode="normal" in="SourceGraphic" in2="effect1_backgroundBlur_55_117" result="shape"/>
</filter>
</defs>
</svg>
