<svg width="317" height="222" viewBox="0 0 317 222" fill="none" xmlns="http://www.w3.org/2000/svg">
<g clip-path="url(#clip0_82_17)">
<rect width="317" height="222" fill="#F9F9F9"/>
<path d="M310.426 0H13.8779V241.304H310.426V0Z" fill="white"/>
<path d="M102.986 83.2054H109.525V113.404H127.935V119.035H102.986V83.2054ZM157.498 105.522C157.498 105.965 157.464 106.597 157.397 107.416H136.322C136.691 109.429 137.646 111.033 139.189 112.227C140.765 113.387 142.71 113.968 145.024 113.968C147.975 113.968 150.406 112.978 152.317 110.999L155.687 114.94C154.48 116.407 152.954 117.517 151.11 118.267C149.265 119.018 147.187 119.393 144.873 119.393C141.922 119.393 139.323 118.796 137.077 117.602C134.83 116.407 133.086 114.753 131.846 112.637C130.638 110.487 130.035 108.064 130.035 105.368C130.035 102.707 130.622 100.318 131.795 98.2026C133.003 96.0528 134.662 94.3809 136.775 93.1864C138.888 91.9919 141.268 91.395 143.917 91.395C146.533 91.395 148.863 91.9919 150.909 93.1864C152.988 94.3464 154.597 96.0016 155.738 98.1514C156.911 100.267 157.498 102.724 157.498 105.522ZM143.917 96.5135C141.905 96.5135 140.195 97.1277 138.787 98.3561C137.412 99.5506 136.574 101.154 136.272 103.168H151.513C151.244 101.189 150.422 99.5846 149.048 98.3561C147.673 97.1277 145.963 96.5135 143.917 96.5135ZM173.062 91.395C177.018 91.395 180.036 92.3675 182.115 94.3125C184.228 96.2236 185.284 99.1239 185.284 103.014V119.035H179.349V115.708C178.577 116.902 177.471 117.824 176.029 118.472C174.621 119.086 172.911 119.393 170.899 119.393C168.887 119.393 167.126 119.052 165.617 118.369C164.108 117.653 162.934 116.68 162.096 115.452C161.292 114.19 160.889 112.773 160.889 111.204C160.889 108.747 161.778 106.784 163.555 105.317C165.366 103.816 168.199 103.065 172.056 103.065H178.997V102.656C178.997 100.745 178.427 99.2774 177.287 98.2537C176.18 97.23 174.52 96.7182 172.307 96.7182C170.798 96.7182 169.305 96.9569 167.83 97.4348C166.388 97.9127 165.165 98.5781 164.159 99.431L161.694 94.7732C163.102 93.681 164.796 92.8454 166.774 92.2651C168.752 91.6848 170.848 91.395 173.062 91.395ZM172.206 114.735C173.782 114.735 175.174 114.377 176.381 113.66C177.622 112.91 178.494 111.852 178.997 110.487V107.313H172.508C168.887 107.313 167.076 108.525 167.076 110.948C167.076 112.108 167.529 113.029 168.434 113.712C169.339 114.394 170.597 114.735 172.206 114.735ZM199.339 95.6945C201.149 92.8281 204.335 91.395 208.895 91.395V97.486C208.359 97.3836 207.872 97.3324 207.437 97.3324C204.989 97.3324 203.078 98.0663 201.703 99.5334C200.328 100.967 199.64 103.048 199.64 105.778V119.035H193.353V91.7021H199.339V95.6945ZM229.469 91.395C232.856 91.395 235.572 92.4014 237.618 94.4149C239.664 96.4283 240.686 99.4137 240.686 103.372V119.035H234.399V104.191C234.399 101.803 233.845 100.011 232.739 98.8168C231.632 97.5883 230.057 96.9741 228.011 96.9741C225.697 96.9741 223.87 97.6907 222.528 99.1239C221.187 100.523 220.516 102.553 220.516 105.215V119.035H214.229V91.7021H220.214V95.2338C221.254 93.9715 222.562 93.0156 224.138 92.3675C225.714 91.7193 227.491 91.395 229.469 91.395ZM273.321 91.7021L260.746 121.236C259.572 124.205 258.147 126.286 256.471 127.48C254.794 128.709 252.765 129.323 250.384 129.323C249.043 129.323 247.719 129.101 246.411 128.658C245.103 128.214 244.03 127.6 243.192 126.815L245.707 122.106C246.31 122.686 247.014 123.147 247.819 123.488C248.657 123.829 249.495 124 250.334 124C251.441 124 252.346 123.71 253.05 123.13C253.788 122.549 254.459 121.577 255.062 120.212L255.515 119.137L243.795 91.7021H250.334L258.784 111.92L267.285 91.7021H273.321Z" fill="#161616"/>
<path d="M63.1661 121.416C74.7945 121.416 84.2214 111.956 84.2214 100.287C84.2214 88.6179 74.7945 79.1582 63.1661 79.1582" stroke="black" stroke-width="11"/>
<path d="M57.4354 86.88L50.3624 93.9911" stroke="black" stroke-width="6"/>
<path d="M49.785 92.061L56.8156 99.215" stroke="black" stroke-width="6"/>
<path d="M49.7024 104.589L57.1466 97.0134" stroke="black" stroke-width="6"/>
<path d="M50.5161 102.893L57.9603 110.468" stroke="black" stroke-width="6"/>
<path d="M50.228 115.825L57.6722 108.25" stroke="black" stroke-width="6"/>
<path d="M60.2417 71.4209H48.5443C46.9292 71.4209 45.6199 72.7532 45.6199 74.3968V86.3003C45.6199 87.9438 46.9292 89.2761 48.5443 89.2761H60.2417C61.8568 89.2761 63.1661 87.9438 63.1661 86.3003V74.3968C63.1661 72.7532 61.8568 71.4209 60.2417 71.4209Z" fill="#7735B5"/>
<path d="M60.2417 112.488H48.5443C46.9292 112.488 45.6199 113.82 45.6199 115.464V127.367C45.6199 129.011 46.9292 130.343 48.5443 130.343H60.2417C61.8568 130.343 63.1661 129.011 63.1661 127.367V115.464C63.1661 113.82 61.8568 112.488 60.2417 112.488Z" fill="#7735B5"/>
<path d="M30.078 6.026C31.114 6.026 32.0147 6.222 32.78 6.614C33.5453 7.006 34.1333 7.55667 34.544 8.266C34.9547 8.966 35.16 9.778 35.16 10.702C35.16 11.4393 35.0387 12.1487 34.796 12.83C34.5533 13.502 34.1987 14.048 33.732 14.468C33.2747 14.888 32.738 15.098 32.122 15.098C31.6553 15.098 31.296 14.9813 31.044 14.748C30.792 14.5147 30.6473 14.1973 30.61 13.796C30.3207 14.1973 29.952 14.5147 29.504 14.748C29.0653 14.9813 28.5987 15.098 28.104 15.098C27.3947 15.098 26.8347 14.8833 26.424 14.454C26.0227 14.0153 25.822 13.4273 25.822 12.69C25.822 11.99 25.9667 11.3367 26.256 10.73C26.5547 10.1233 26.9653 9.638 27.488 9.274C28.0107 8.90067 28.6033 8.714 29.266 8.714C30.1527 8.714 30.75 9.05 31.058 9.722L31.212 8.854H32.318L31.618 12.9C31.59 13.0773 31.576 13.2407 31.576 13.39C31.576 13.95 31.8233 14.23 32.318 14.23C32.6913 14.23 33.0133 14.0527 33.284 13.698C33.564 13.3433 33.774 12.9 33.914 12.368C34.054 11.8267 34.124 11.2947 34.124 10.772C34.124 9.54933 33.7553 8.602 33.018 7.93C32.29 7.258 31.2587 6.922 29.924 6.922C28.8133 6.922 27.81 7.19267 26.914 7.734C26.0273 8.266 25.332 8.99867 24.828 9.932C24.324 10.8653 24.072 11.8967 24.072 13.026C24.0627 14.258 24.4313 15.2053 25.178 15.868C25.9247 16.54 26.9607 16.876 28.286 16.876C29.1633 16.876 29.938 16.7173 30.61 16.4L30.778 17.268C29.9473 17.6133 29.0327 17.786 28.034 17.786C27.0353 17.786 26.1533 17.5947 25.388 17.212C24.632 16.8387 24.044 16.2973 23.624 15.588C23.2133 14.888 23.008 14.0713 23.008 13.138C23.008 11.822 23.3113 10.6227 23.918 9.54C24.5247 8.448 25.3647 7.58933 26.438 6.964C27.5207 6.33867 28.734 6.026 30.078 6.026ZM28.482 14.104C28.902 14.104 29.2893 13.9827 29.644 13.74C29.9987 13.488 30.2787 13.152 30.484 12.732C30.6893 12.3027 30.792 11.836 30.792 11.332C30.792 10.8467 30.6567 10.4547 30.386 10.156C30.1247 9.848 29.7513 9.694 29.266 9.694C28.818 9.694 28.4213 9.82933 28.076 10.1C27.74 10.3613 27.4787 10.7113 27.292 11.15C27.1053 11.5793 27.012 12.0273 27.012 12.494C27.012 12.9887 27.138 13.3807 27.39 13.67C27.642 13.9593 28.006 14.104 28.482 14.104ZM36.7797 11.136C36.7797 10.352 36.9384 9.666 37.2557 9.078C37.5731 8.48067 38.0071 8.01867 38.5577 7.692C39.1177 7.36533 39.7431 7.202 40.4337 7.202C41.0311 7.202 41.5864 7.342 42.0997 7.622C42.6131 7.89267 43.0051 8.252 43.2757 8.7V4.64H44.5637V15H43.2757V13.558C43.0237 14.0153 42.6504 14.3933 42.1557 14.692C41.6611 14.9813 41.0824 15.126 40.4197 15.126C39.7384 15.126 39.1177 14.958 38.5577 14.622C38.0071 14.286 37.5731 13.8147 37.2557 13.208C36.9384 12.6013 36.7797 11.9107 36.7797 11.136ZM43.2757 11.15C43.2757 10.5713 43.1591 10.0673 42.9257 9.638C42.6924 9.20867 42.3751 8.882 41.9737 8.658C41.5817 8.42467 41.1477 8.308 40.6717 8.308C40.1957 8.308 39.7617 8.42 39.3697 8.644C38.9777 8.868 38.6651 9.19467 38.4317 9.624C38.1984 10.0533 38.0817 10.5573 38.0817 11.136C38.0817 11.724 38.1984 12.2373 38.4317 12.676C38.6651 13.1053 38.9777 13.4367 39.3697 13.67C39.7617 13.894 40.1957 14.006 40.6717 14.006C41.1477 14.006 41.5817 13.894 41.9737 13.67C42.3751 13.4367 42.6924 13.1053 42.9257 12.676C43.1591 12.2373 43.2757 11.7287 43.2757 11.15ZM47.3747 6.082C47.132 6.082 46.9267 5.998 46.7587 5.83C46.5907 5.662 46.5067 5.45667 46.5067 5.214C46.5067 4.97133 46.5907 4.766 46.7587 4.598C46.9267 4.43 47.132 4.346 47.3747 4.346C47.608 4.346 47.804 4.43 47.9627 4.598C48.1307 4.766 48.2147 4.97133 48.2147 5.214C48.2147 5.45667 48.1307 5.662 47.9627 5.83C47.804 5.998 47.608 6.082 47.3747 6.082ZM47.9907 7.328V15H46.7167V7.328H47.9907ZM49.686 11.136C49.686 10.352 49.8447 9.666 50.162 9.078C50.4793 8.48067 50.9133 8.01867 51.464 7.692C52.024 7.36533 52.6447 7.202 53.326 7.202C53.998 7.202 54.5813 7.34667 55.076 7.636C55.5707 7.92533 55.9393 8.28933 56.182 8.728V7.328H57.47V15H56.182V13.572C55.93 14.02 55.552 14.3933 55.048 14.692C54.5533 14.9813 53.9747 15.126 53.312 15.126C52.6307 15.126 52.0147 14.958 51.464 14.622C50.9133 14.286 50.4793 13.8147 50.162 13.208C49.8447 12.6013 49.686 11.9107 49.686 11.136ZM56.182 11.15C56.182 10.5713 56.0653 10.0673 55.832 9.638C55.5987 9.20867 55.2813 8.882 54.88 8.658C54.488 8.42467 54.054 8.308 53.578 8.308C53.102 8.308 52.668 8.42 52.276 8.644C51.884 8.868 51.5713 9.19467 51.338 9.624C51.1047 10.0533 50.988 10.5573 50.988 11.136C50.988 11.724 51.1047 12.2373 51.338 12.676C51.5713 13.1053 51.884 13.4367 52.276 13.67C52.668 13.894 53.102 14.006 53.578 14.006C54.054 14.006 54.488 13.894 54.88 13.67C55.2813 13.4367 55.5987 13.1053 55.832 12.676C56.0653 12.2373 56.182 11.7287 56.182 11.15ZM63.3609 7.188C64.2943 7.188 65.0503 7.47267 65.6289 8.042C66.2076 8.602 66.4969 9.414 66.4969 10.478V15H65.2369V10.66C65.2369 9.89467 65.0456 9.31133 64.6629 8.91C64.2803 8.49933 63.7576 8.294 63.0949 8.294C62.4229 8.294 61.8863 8.504 61.4849 8.924C61.0929 9.344 60.8969 9.95533 60.8969 10.758V15H59.6229V7.328H60.8969V8.42C61.1489 8.028 61.4896 7.72467 61.9189 7.51C62.3576 7.29533 62.8383 7.188 63.3609 7.188ZM72.316 7.188C73.2493 7.188 74.0053 7.47267 74.584 8.042C75.1627 8.602 75.452 9.414 75.452 10.478V15H74.192V10.66C74.192 9.89467 74.0007 9.31133 73.618 8.91C73.2353 8.49933 72.7127 8.294 72.05 8.294C71.378 8.294 70.8413 8.504 70.44 8.924C70.048 9.344 69.852 9.95533 69.852 10.758V15H68.578V7.328H69.852V8.42C70.104 8.028 70.4447 7.72467 70.874 7.51C71.3127 7.29533 71.7933 7.188 72.316 7.188ZM84.5331 10.87C84.5331 11.1127 84.5191 11.3693 84.4911 11.64H78.3591C78.4057 12.396 78.6624 12.9887 79.1291 13.418C79.6051 13.838 80.1791 14.048 80.8511 14.048C81.4017 14.048 81.8591 13.922 82.2231 13.67C82.5964 13.4087 82.8577 13.0633 83.0071 12.634H84.3791C84.1737 13.3713 83.7631 13.9733 83.1471 14.44C82.5311 14.8973 81.7657 15.126 80.8511 15.126C80.1231 15.126 79.4697 14.9627 78.8911 14.636C78.3217 14.3093 77.8737 13.8473 77.5471 13.25C77.2204 12.6433 77.0571 11.9433 77.0571 11.15C77.0571 10.3567 77.2157 9.66133 77.5331 9.064C77.8504 8.46667 78.2937 8.00933 78.8631 7.692C79.4417 7.36533 80.1044 7.202 80.8511 7.202C81.5791 7.202 82.2231 7.36067 82.7831 7.678C83.3431 7.99533 83.7724 8.434 84.0711 8.994C84.3791 9.54467 84.5331 10.17 84.5331 10.87ZM83.2171 10.604C83.2171 10.1187 83.1097 9.70333 82.8951 9.358C82.6804 9.00333 82.3864 8.73733 82.0131 8.56C81.6491 8.37333 81.2431 8.28 80.7951 8.28C80.1511 8.28 79.6004 8.48533 79.1431 8.896C78.6951 9.30667 78.4384 9.876 78.3731 10.604H83.2171ZM93.2147 10.87C93.2147 11.1127 93.2007 11.3693 93.1727 11.64H87.0407C87.0874 12.396 87.3441 12.9887 87.8107 13.418C88.2867 13.838 88.8607 14.048 89.5327 14.048C90.0834 14.048 90.5407 13.922 90.9047 13.67C91.2781 13.4087 91.5394 13.0633 91.6887 12.634H93.0607C92.8554 13.3713 92.4447 13.9733 91.8287 14.44C91.2127 14.8973 90.4474 15.126 89.5327 15.126C88.8047 15.126 88.1514 14.9627 87.5727 14.636C87.0034 14.3093 86.5554 13.8473 86.2287 13.25C85.9021 12.6433 85.7387 11.9433 85.7387 11.15C85.7387 10.3567 85.8974 9.66133 86.2147 9.064C86.5321 8.46667 86.9754 8.00933 87.5447 7.692C88.1234 7.36533 88.7861 7.202 89.5327 7.202C90.2607 7.202 90.9047 7.36067 91.4647 7.678C92.0247 7.99533 92.4541 8.434 92.7527 8.994C93.0607 9.54467 93.2147 10.17 93.2147 10.87ZM91.8987 10.604C91.8987 10.1187 91.7914 9.70333 91.5767 9.358C91.3621 9.00333 91.0681 8.73733 90.6947 8.56C90.3307 8.37333 89.9247 8.28 89.4767 8.28C88.8327 8.28 88.2821 8.48533 87.8247 8.896C87.3767 9.30667 87.1201 9.876 87.0547 10.604H91.8987ZM94.4204 11.136C94.4204 10.352 94.579 9.666 94.8964 9.078C95.2137 8.48067 95.6477 8.01867 96.1984 7.692C96.7584 7.36533 97.3837 7.202 98.0744 7.202C98.6717 7.202 99.227 7.342 99.7404 7.622C100.254 7.89267 100.646 8.252 100.916 8.7V4.64H102.204V15H100.916V13.558C100.664 14.0153 100.291 14.3933 99.7964 14.692C99.3017 14.9813 98.723 15.126 98.0604 15.126C97.379 15.126 96.7584 14.958 96.1984 14.622C95.6477 14.286 95.2137 13.8147 94.8964 13.208C94.579 12.6013 94.4204 11.9107 94.4204 11.136ZM100.916 11.15C100.916 10.5713 100.8 10.0673 100.566 9.638C100.333 9.20867 100.016 8.882 99.6144 8.658C99.2224 8.42467 98.7884 8.308 98.3124 8.308C97.8364 8.308 97.4024 8.42 97.0104 8.644C96.6184 8.868 96.3057 9.19467 96.0724 9.624C95.839 10.0533 95.7224 10.5573 95.7224 11.136C95.7224 11.724 95.839 12.2373 96.0724 12.676C96.3057 13.1053 96.6184 13.4367 97.0104 13.67C97.4024 13.894 97.8364 14.006 98.3124 14.006C98.7884 14.006 99.2224 13.894 99.6144 13.67C100.016 13.4367 100.333 13.1053 100.566 12.676C100.8 12.2373 100.916 11.7287 100.916 11.15Z" fill="black"/>
</g>
<defs>
<clipPath id="clip0_82_17">
<rect width="317" height="222" fill="white"/>
</clipPath>
</defs>
</svg>
