<svg width="124" height="176" viewBox="0 0 124 176" fill="none" xmlns="http://www.w3.org/2000/svg">
<path d="M39.9587 143.548C38.6697 142.631 38.4855 137.674 43.8257 136.756C47.1402 136.206 56.3473 139.51 60.5826 141.713C60.9509 143.548 61.135 145.2 60.0301 146.669C58.7411 148.137 56.5314 148.321 54.69 148.137C51.1913 147.77 42.1684 145.2 39.9587 143.548Z" fill="#D58F77"/>
<path d="M65.7385 139.51C64.0812 138.041 64.8178 132.901 69.0531 132.718C72.1835 132.718 76.9712 138.776 80.8381 141.162C81.0223 142.814 81.0223 144.466 79.7333 145.751C78.4443 147.036 76.4187 146.852 74.5773 146.485C71.4469 145.935 67.5799 141.345 65.7385 139.51Z" fill="#D58F77"/>
<path d="M40.1429 142.079C38.8539 141.162 38.4857 137.123 43.8258 136.389C47.1403 135.838 56.3474 138.225 60.5827 140.427C60.951 142.263 61.1351 143.915 60.0303 145.384C58.7413 146.852 56.5316 147.036 54.6901 146.852C51.1914 146.118 42.3526 143.732 40.1429 142.079Z" fill="#263045"/>
<path d="M65.7386 137.674C64.6338 136.573 64.6338 132.901 69.7897 132.718C72.9202 132.534 77.1554 137.123 80.8383 139.51C81.0224 141.162 81.0224 142.814 79.7334 144.099C78.4444 145.384 76.4188 145.2 74.5774 144.833C71.447 144.099 67.58 139.51 65.7386 137.674Z" fill="#263045"/>
<path d="M61.3192 110.506C59.1095 111.424 57.4522 113.26 57.0839 115.463C54.5059 125.926 50.8231 138.959 50.8231 140.978C50.6389 142.814 53.2169 144.282 54.8742 144.65C58.3729 145.384 59.2936 144.833 60.3984 143.548C60.9509 142.814 69.4214 122.622 72.1835 105.55C68.6848 108.12 65.002 109.038 61.3192 110.506Z" fill="#1E2940"/>
<path d="M71.9994 103.347C72.3677 119.685 70.8946 138.959 71.447 140.978C72.5518 143.732 80.1017 144.282 80.6541 141.896C80.8382 140.795 84.3369 120.419 84.1528 98.9417C79.9175 101.328 76.0505 100.41 71.9994 103.347Z" fill="#1F2A40"/>
<path d="M112.511 125.191L72.1837 101.879L71.9995 45.8912L112.327 69.204L112.511 125.191Z" fill="#C6C6C6"/>
<path d="M40.3271 105.183L0 81.8701L77.7079 37.2636L118.035 60.3929L40.3271 105.183Z" fill="white"/>
<path d="M40.3271 166.494L0.184142 143.365L0 81.8703L40.3271 105.183V166.494Z" fill="#EBECF3"/>
<path d="M118.035 60.3932V121.888L112.511 125.192L112.327 69.2043L45.8514 107.386L46.0355 163.373L40.3271 166.494V105.183L118.035 60.3932Z" fill="#DDDDE1"/>
<path d="M92.4392 66.8177L75.1299 56.9051V54.5188L92.4392 64.6149V66.8177Z" fill="#3A4B8F"/>
<path d="M92.8921 63.5354L75.5828 53.6228L88.2038 46.2584L105.513 56.1709L92.8921 63.5354Z" fill="#5971CF"/>
<path d="M92.4392 64.6151L75.1299 54.7025C75.1299 54.3354 75.4982 53.7847 75.8665 53.6011L93.1758 63.5137C92.6234 63.6972 92.4392 64.0644 92.4392 64.6151Z" fill="#4C61B4"/>
<path d="M92.9917 67.1847C92.6234 67.3683 92.2551 67.1847 92.2551 66.8176V64.4312C92.2551 64.0641 92.6234 63.5134 92.9917 63.3299L105.513 56.1708V56.5379L105.145 56.7215L104.408 58.3736L105.145 59.6586L105.513 59.8421V60.0257L92.9917 67.1847Z" fill="#4F63A3"/>
<path d="M92.6232 66.8178C92.6232 67.0013 92.6232 67.0013 92.6232 67.0013H92.8074L105.329 59.8423L104.961 59.6587L104.224 58.5573L104.961 56.7216L92.9915 63.6971C92.8074 63.6971 92.6232 63.8807 92.6232 64.0643C92.4391 64.2478 92.4391 64.4314 92.4391 64.615L92.6232 66.8178Z" fill="#5E71BA"/>
<path d="M105.145 56.7216L93.1757 63.6971C92.9916 63.6971 92.8074 63.8807 92.8074 64.0643C92.6233 64.2478 92.6233 64.4314 92.6233 64.615V66.8178L105.145 59.6587V56.7216Z" fill="#FFFFFA"/>
<path d="M92.8074 62.5957L75.498 52.4996V50.2968L92.8074 60.2094V62.5957Z" fill="#7735B5"/>
<path d="M93.5439 59.1081L76.2346 49.1956L88.5721 41.8529L105.881 51.949L93.5439 59.1081Z" fill="#AD56FF"/>
<path d="M92.8074 60.2096L75.498 50.2971C75.498 49.9299 75.8663 49.3792 76.2346 49.1957L93.544 59.1082C93.1757 59.2918 92.8074 59.8425 92.8074 60.2096Z" fill="#913FDD"/>
<path d="M93.5439 62.9631C93.1757 63.1466 92.8074 62.9631 92.8074 62.5959V60.2096C92.8074 59.8424 93.1757 59.2917 93.5439 59.1082L106.066 51.9491V52.3163L105.697 52.4998L104.961 54.1519L105.697 55.4369L106.066 55.6204V55.804L93.5439 62.9631Z" fill="#7735B5"/>
<path d="M92.9915 62.5958C92.9915 62.7794 92.9915 62.7794 92.9915 62.7794H93.1757L105.697 55.6203L105.329 55.4368L104.592 54.3354L105.329 52.4997L93.3598 59.4752C93.1757 59.4752 92.9915 59.6588 92.9915 59.8423C92.8074 60.0259 92.8074 60.2095 92.8074 60.393L92.9915 62.5958Z" fill="#7735B5"/>
<path d="M105.513 52.3162L93.5439 59.2917C93.3597 59.2917 93.1756 59.4752 93.1756 59.6588C92.9915 59.8424 92.9915 60.0259 92.9915 60.2095V62.4123L105.513 55.2532V52.3162Z" fill="#FFFFFA"/>
<path d="M83.7847 48.6449L88.02 46.2585L87.8359 46.075L83.6006 48.4613L83.7847 48.6449Z" fill="#E9BFE1"/>
<path d="M83.7847 50.1131L90.4138 46.2582L90.0455 45.8911L83.4164 49.746L83.7847 50.1131Z" fill="#E9BFE1"/>
<path d="M84.8896 50.664L91.5188 46.8091L91.1505 46.6256L84.5214 50.4805L84.8896 50.664Z" fill="#E9BFE1"/>
<path d="M85.6259 69.0208L77.3395 64.2481C77.1553 64.0645 76.7871 64.0645 76.6029 64.2481L50.8231 79.1169C50.6389 79.1169 50.6389 79.3004 50.6389 79.3004V80.4018C50.6389 80.4018 50.6389 80.5854 50.8231 80.5854L59.1094 85.3581C59.2936 85.5417 59.6619 85.5417 59.846 85.3581L85.6259 70.4893C85.81 70.4893 85.81 70.3057 85.81 70.3057V69.3879C85.6259 69.0208 85.6259 69.0208 85.6259 69.0208Z" fill="#172030"/>
<path d="M58.9255 74.3442L50.6391 79.1169C50.455 79.1169 50.455 79.3005 50.455 79.3005V80.4019C50.455 80.4019 50.455 80.5855 50.6391 80.5855L58.9255 85.3582V74.3442Z" fill="#172030"/>
<path d="M85.6259 69.3877L59.846 84.2565C59.6619 84.44 59.2936 84.44 59.1094 84.2565L50.823 79.4838C50.6389 79.3002 50.6389 79.1166 50.823 78.9331L76.6029 64.0643C76.787 63.8807 77.1553 63.8807 77.3395 64.0643L85.6259 68.837C85.81 69.0205 85.81 69.2041 85.6259 69.3877Z" fill="#1E2A3D"/>
<path opacity="0.9" d="M54.1376 79.4838L53.0327 80.0345C52.8486 80.0345 52.6645 80.0345 52.6645 80.0345L51.5596 79.4838C51.3755 79.4838 51.3755 79.3003 51.5596 79.3003L52.6645 78.7496C52.8486 78.7496 53.0327 78.7496 53.0327 78.7496L53.9535 79.3003C54.1376 79.3003 54.1376 79.3003 54.1376 79.4838ZM55.979 78.1989L55.0583 77.6482C54.8742 77.6482 54.69 77.6482 54.69 77.6482L53.401 78.1989C53.2169 78.1989 53.2169 78.3825 53.401 78.3825L54.3217 78.9331C54.5059 78.9331 54.69 78.9331 54.69 78.9331L55.7949 78.3825C55.979 78.3825 55.979 78.1989 55.979 78.1989ZM57.6363 77.0975L56.7156 76.5468C56.5314 76.5468 56.3473 76.5468 56.3473 76.5468L55.2425 77.2811C55.0583 77.2811 55.0583 77.4646 55.2425 77.4646L56.1632 78.0153C56.3473 78.0153 56.5314 78.0153 56.5314 78.0153L57.6363 77.4646C57.8204 77.2811 57.8204 77.0975 57.6363 77.0975ZM59.4777 76.1797L58.557 75.629C58.3729 75.629 58.1887 75.629 58.1887 75.629L57.0839 76.1797C56.8997 76.1797 56.8997 76.3632 57.0839 76.3632L58.0046 76.9139C58.1887 76.9139 58.3729 76.9139 58.3729 76.9139L59.4777 76.3632C59.6619 76.1797 59.6619 76.1797 59.4777 76.1797ZM61.3191 75.0783L60.3984 74.5276C60.2143 74.5276 60.0301 74.5276 60.0301 74.5276L58.9253 75.0783C58.7411 75.0783 58.7411 75.2618 58.9253 75.2618L59.846 75.8125C60.0301 75.8125 60.2143 75.8125 60.2143 75.8125L61.3191 75.2618V75.0783ZM63.1606 73.9769L62.2398 73.4262C62.0557 73.4262 61.8716 73.4262 61.8716 73.4262L60.7667 73.9769C60.5826 73.9769 60.5826 74.1604 60.7667 74.1604L61.6874 74.7111C61.8716 74.7111 62.0557 74.7111 62.0557 74.7111L63.1606 74.1604C63.1606 74.1604 63.1606 74.1604 63.1606 73.9769ZM64.8178 73.0591L63.8971 72.5084C63.713 72.5084 63.5288 72.5084 63.5288 72.5084L62.424 73.0591C62.2398 73.0591 62.2398 73.2426 62.424 73.2426L63.3447 73.7933C63.5288 73.7933 63.713 73.7933 63.713 73.7933L64.8178 73.2426C65.002 73.0591 65.002 73.0591 64.8178 73.0591ZM66.6593 71.9577L65.7385 71.407C65.5544 71.407 65.3703 71.407 65.3703 71.407L64.2654 71.9577C64.0813 71.9577 64.0813 72.1412 64.2654 72.1412L65.1861 72.6919C65.3703 72.6919 65.5544 72.6919 65.5544 72.6919L66.6593 72.1412C66.8434 72.1412 66.8434 71.9577 66.6593 71.9577ZM68.5007 70.8563L67.58 70.3056C67.3958 70.3056 67.2117 70.3056 67.2117 70.3056L66.1068 70.8563C65.9227 70.8563 65.9227 71.0398 66.1068 71.0398L67.0275 71.5905C67.2117 71.5905 67.3958 71.5905 67.3958 71.5905L68.5007 71.0398C68.6848 71.0398 68.6848 71.0398 68.5007 70.8563ZM70.8945 69.5713L69.9738 69.0206C69.7897 69.0206 69.6055 69.0206 69.6055 69.0206L67.9482 69.9384C67.7641 69.9384 67.7641 70.122 67.9482 70.122L68.869 70.6727C69.0531 70.6727 69.2372 70.6727 69.2372 70.6727L70.8945 69.7549V69.5713ZM78.6285 70.8563L77.7078 70.3056C77.5236 70.3056 77.3395 70.3056 77.3395 70.3056L76.2346 70.8563C76.0505 70.8563 76.0505 71.0398 76.2346 71.0398L77.1553 71.5905C77.3395 71.5905 77.5236 71.5905 77.5236 71.5905L78.6285 71.0398C78.6285 70.8563 78.6285 70.8563 78.6285 70.8563ZM80.4699 69.7549L79.5492 69.2042C79.365 69.2042 79.1809 69.2042 79.1809 69.2042L77.8919 69.7549C77.7078 69.7549 77.7078 69.9384 77.8919 69.9384L78.8126 70.4891C78.9968 70.4891 79.1809 70.4891 79.1809 70.4891L80.2857 69.9384C80.4699 69.9384 80.4699 69.7549 80.4699 69.7549ZM82.1272 68.6535L81.2065 68.1028C81.0223 68.1028 80.8382 68.1028 80.8382 68.1028L79.7333 68.6535C79.5492 68.6535 79.5492 68.8371 79.7333 68.8371L80.654 69.3877C80.8382 69.3877 81.0223 69.3877 81.0223 69.3877L82.1272 68.8371C82.3113 68.8371 82.3113 68.8371 82.1272 68.6535ZM80.2857 71.7741L79.365 71.2234C79.1809 71.2234 78.9968 71.2234 78.9968 71.2234L77.8919 71.7741C77.7078 71.7741 77.7078 71.9577 77.8919 71.9577L78.8126 72.5084C78.9968 72.5084 79.1809 72.5084 79.1809 72.5084L80.2857 71.9577V71.7741ZM82.1272 70.6727L81.0223 70.122C80.8382 70.122 80.654 70.122 80.654 70.122L79.5492 70.6727C79.365 70.6727 79.365 70.8563 79.5492 70.8563L80.4699 71.407C80.654 71.407 80.8382 71.407 80.8382 71.407L81.943 70.8563C82.1272 70.8563 82.1272 70.6727 82.1272 70.6727ZM83.7844 69.5713L82.8637 69.0206C82.6796 69.0206 82.4955 69.0206 82.4955 69.0206L81.3906 69.7549C81.2065 69.7549 81.2065 69.9384 81.3906 69.9384L82.3113 70.4891C82.4955 70.4891 82.6796 70.4891 82.6796 70.4891L83.7844 69.9384C83.9686 69.7549 83.9686 69.7549 83.7844 69.5713ZM56.3473 79.851L55.4266 79.3003C55.2425 79.3003 55.0583 79.3003 55.0583 79.3003L53.401 80.2181C53.2169 80.2181 53.2169 80.4017 53.401 80.4017L54.3217 80.9524C54.5059 80.9524 54.69 80.9524 54.69 80.9524L56.3473 80.0345C56.5314 80.0345 56.5314 79.851 56.3473 79.851ZM58.1887 78.7496L57.268 78.1989C57.0839 78.1989 56.8997 78.1989 56.8997 78.1989L55.7949 78.9331C55.6107 78.9331 55.6107 79.1167 55.7949 79.1167L56.7156 79.6674C56.8997 79.6674 57.0839 79.6674 57.0839 79.6674L58.1887 79.1167C58.1887 78.9331 58.1887 78.7496 58.1887 78.7496ZM60.0301 77.6482L58.9253 77.0975C58.7411 77.0975 58.557 77.0975 58.557 77.0975L57.4522 77.6482C57.268 77.6482 57.268 77.8318 57.4522 77.8318L58.3729 78.3825C58.557 78.3825 58.7411 78.3825 58.7411 78.3825L59.846 77.8318C60.0301 77.8318 60.0301 77.8318 60.0301 77.6482ZM61.6874 76.7304L60.7667 76.1797C60.5826 76.1797 60.3984 76.1797 60.3984 76.1797L59.2936 76.7304C59.1094 76.7304 59.1094 76.9139 59.2936 76.9139L60.2143 77.4646C60.3984 77.4646 60.5826 77.4646 60.5826 77.4646L61.6874 76.9139C61.8716 76.9139 61.8716 76.7304 61.6874 76.7304ZM63.5288 75.629L62.6081 75.0783C62.424 75.0783 62.2398 75.0783 62.2398 75.0783L61.135 75.629C60.9509 75.629 60.9509 75.8125 61.135 75.8125L62.0557 76.3632C62.2398 76.3632 62.424 76.3632 62.424 76.3632L63.5288 75.8125C63.713 75.8125 63.713 75.629 63.5288 75.629ZM65.3703 74.7111L64.4495 74.1604C64.2654 74.1604 64.0813 74.1604 64.0813 74.1604L62.9764 74.7111C62.7923 74.7111 62.7923 74.8947 62.9764 74.8947L63.8971 75.4454C64.0813 75.4454 64.2654 75.4454 64.2654 75.4454L65.3703 74.8947C65.3703 74.7111 65.3703 74.7111 65.3703 74.7111ZM67.2117 73.6097L66.291 73.0591C66.1068 73.0591 65.9227 73.0591 65.9227 73.0591L64.8178 73.6097C64.6337 73.6097 64.6337 73.7933 64.8178 73.7933L65.7385 74.344C65.9227 74.344 66.1068 74.344 66.1068 74.344L67.2117 73.7933V73.6097ZM68.869 72.5084L67.9482 71.9577C67.7641 71.9577 67.58 71.9577 67.58 71.9577L66.4751 72.5084C66.291 72.5084 66.291 72.6919 66.4751 72.6919L67.3958 73.2426C67.58 73.2426 67.7641 73.2426 67.7641 73.2426L68.869 72.6919C69.0531 72.6919 69.0531 72.6919 68.869 72.5084ZM70.7104 71.5905L69.7897 71.0398C69.6055 71.0398 69.4214 71.0398 69.4214 71.0398L68.3165 71.5905C68.1324 71.5905 68.1324 71.7741 68.3165 71.7741L69.2372 72.3248C69.4214 72.3248 69.6055 72.3248 69.6055 72.3248L70.7104 71.7741C70.8945 71.5905 70.8945 71.5905 70.7104 71.5905ZM72.5518 70.4891L71.6311 69.9384C71.4469 69.9384 71.2628 69.9384 71.2628 69.9384L70.1579 70.4891C69.9738 70.4891 69.9738 70.6727 70.1579 70.6727L71.0787 71.2234C71.2628 71.2234 71.4469 71.2234 71.4469 71.2234L72.5518 70.6727C72.7359 70.6727 72.7359 70.4891 72.5518 70.4891ZM57.4522 81.1359L56.5314 80.5852C56.3473 80.5852 56.1632 80.5852 56.1632 80.5852L55.0583 81.1359C54.8742 81.1359 54.8742 81.3195 55.0583 81.3195L55.979 81.8702C56.1632 81.8702 56.3473 81.8702 56.3473 81.8702L57.4522 81.3195V81.1359ZM59.1094 80.0345L58.1887 79.4838C58.0046 79.4838 57.8204 79.4838 57.8204 79.4838L56.7156 80.0345C56.5314 80.0345 56.5314 80.2181 56.7156 80.2181L57.6363 80.7688C57.8204 80.7688 58.0046 80.7688 58.0046 80.7688L59.1094 80.2181C59.2936 80.2181 59.2936 80.0345 59.1094 80.0345ZM60.9508 78.9331L60.0301 78.3825C59.846 78.3825 59.6619 78.3825 59.6619 78.3825L58.557 78.9331C58.3729 78.9331 58.3729 79.1167 58.557 79.1167L59.4777 79.6674C59.6619 79.6674 59.846 79.6674 59.846 79.6674L60.9508 79.1167C61.135 79.1167 61.135 79.1167 60.9508 78.9331ZM62.7923 78.0153L61.8716 77.4646C61.6874 77.4646 61.5033 77.4646 61.5033 77.4646L60.3984 78.0153C60.2143 78.0153 60.2143 78.1989 60.3984 78.1989L61.3191 78.7496C61.5033 78.7496 61.6874 78.7496 61.6874 78.7496L62.7923 78.1989V78.0153ZM60.5826 82.9716L59.6619 82.4209C59.4777 82.4209 59.2936 82.4209 59.2936 82.4209L58.1887 82.9716C58.0046 82.9716 58.0046 83.1552 58.1887 83.1552L59.1094 83.7058C59.2936 83.7058 59.4777 83.7058 59.4777 83.7058L60.5826 83.1552C60.7667 83.1552 60.7667 82.9716 60.5826 82.9716ZM62.424 81.8702L61.5033 81.3195C61.3191 81.3195 61.135 81.3195 61.135 81.3195L60.0301 81.8702C59.846 81.8702 59.846 82.0538 60.0301 82.0538L60.9508 82.6045C61.135 82.6045 61.3191 82.6045 61.3191 82.6045L62.424 82.0538C62.6081 82.0538 62.6081 82.0538 62.424 81.8702ZM64.2654 80.9524L63.3447 80.4017C63.1606 80.4017 62.9764 80.4017 62.9764 80.4017L61.8716 80.9524C61.6874 80.9524 61.6874 81.1359 61.8716 81.1359L62.7923 81.6866C62.9764 81.6866 63.1606 81.6866 63.1606 81.6866L64.2654 81.1359V80.9524ZM66.1068 79.851L65.1861 79.3003C65.002 79.3003 64.8178 79.3003 64.8178 79.3003L63.713 79.851C63.5288 79.851 63.5288 80.0345 63.713 80.0345L64.4495 80.7688C64.6337 80.7688 64.8178 80.7688 64.8178 80.7688L65.9227 80.2181C66.1068 80.0345 66.1068 79.851 66.1068 79.851ZM77.3395 73.2426L76.4188 72.6919C76.2346 72.6919 76.0505 72.6919 76.0505 72.6919L74.3932 73.6097C74.2091 73.6097 74.2091 73.7933 74.3932 73.7933L75.3139 74.344C75.4981 74.344 75.6822 74.344 75.6822 74.344L77.3395 73.4262C77.5236 73.4262 77.5236 73.4262 77.3395 73.2426ZM64.6337 76.9139L63.713 76.3632C63.5288 76.3632 63.3447 76.3632 63.3447 76.3632L62.0557 77.0975C61.8716 77.0975 61.8716 77.2811 62.0557 77.2811L62.9764 77.8318C63.1606 77.8318 63.3447 77.8318 63.3447 77.8318L64.4495 77.2811C64.6337 77.0975 64.6337 76.9139 64.6337 76.9139ZM66.291 75.8125L65.3703 75.2618C65.1861 75.2618 65.002 75.2618 65.002 75.2618L63.8971 75.8125C63.713 75.8125 63.713 75.9961 63.8971 75.9961L64.8178 76.5468C65.002 76.5468 65.1861 76.5468 65.1861 76.5468L66.291 75.9961C66.4751 75.9961 66.4751 75.9961 66.291 75.8125ZM68.1324 74.8947L67.2117 74.344C67.0275 74.344 66.8434 74.344 66.8434 74.344L65.7385 74.8947C65.5544 74.8947 65.5544 75.0783 65.7385 75.0783L66.6593 75.629C66.8434 75.629 67.0275 75.629 67.0275 75.629L68.1324 75.0783C68.3165 75.0783 68.3165 74.8947 68.1324 74.8947ZM69.9738 73.7933L69.0531 73.2426C68.869 73.2426 68.6848 73.2426 68.6848 73.2426L67.58 73.7933C67.3958 73.7933 67.3958 73.9769 67.58 73.9769L68.5007 74.5276C68.6848 74.5276 68.869 74.5276 68.869 74.5276L69.9738 73.9769C69.9738 73.9769 69.9738 73.9769 69.9738 73.7933ZM71.8152 72.8755L70.8945 72.3248C70.7104 72.3248 70.5262 72.3248 70.5262 72.3248L69.4214 72.8755C69.2372 72.8755 69.2372 73.0591 69.4214 73.0591L70.3421 73.6097C70.5262 73.6097 70.7104 73.6097 70.7104 73.6097L71.8152 73.0591C71.8152 72.8755 71.8152 72.8755 71.8152 72.8755ZM74.2091 71.407L73.2884 70.8563C73.1042 70.8563 72.9201 70.8563 72.9201 70.8563L71.2628 71.7741C71.0787 71.7741 71.0787 71.9577 71.2628 71.9577L72.1835 72.5084C72.3676 72.5084 72.5518 72.5084 72.5518 72.5084L74.2091 71.5905V71.407ZM59.6619 81.6866L58.7411 81.1359C58.557 81.1359 58.3729 81.1359 58.3729 81.1359L56.7156 82.0538C56.5314 82.0538 56.5314 82.2373 56.7156 82.2373L57.6363 82.788C57.8204 82.788 58.0046 82.788 58.0046 82.788L59.6619 81.8702V81.6866ZM61.5033 80.5852L60.5826 80.0345C60.3984 80.0345 60.2143 80.0345 60.2143 80.0345L58.9253 80.7688C58.7411 80.7688 58.7411 80.9524 58.9253 80.9524L59.846 81.5031C60.0301 81.5031 60.2143 81.5031 60.2143 81.5031L61.3191 80.9524C61.5033 80.7688 61.5033 80.7688 61.5033 80.5852ZM63.1606 79.6674L62.2398 79.1167C62.0557 79.1167 61.8716 79.1167 61.8716 79.1167L60.7667 79.6674C60.5826 79.6674 60.5826 79.851 60.7667 79.851L61.6874 80.4017C61.8716 80.4017 62.0557 80.4017 62.0557 80.4017L63.1606 79.851C63.3447 79.851 63.3447 79.6674 63.1606 79.6674ZM65.002 78.566L64.0813 78.0153C63.8971 78.0153 63.713 78.0153 63.713 78.0153L62.6081 78.7496C62.424 78.7496 62.424 78.9331 62.6081 78.9331L63.5288 79.4838C63.713 79.4838 63.8971 79.4838 63.8971 79.4838L65.002 78.9331C65.1861 78.7496 65.1861 78.566 65.002 78.566ZM66.8434 77.4646L65.9227 76.9139C65.7385 76.9139 65.5544 76.9139 65.5544 76.9139L64.4495 77.6482C64.2654 77.6482 64.2654 77.8318 64.4495 77.8318L65.3703 78.3825C65.5544 78.3825 65.7385 78.3825 65.7385 78.3825L66.8434 77.8318C66.8434 77.6482 66.8434 77.6482 66.8434 77.4646ZM75.1298 74.7111L74.2091 74.1604C74.0249 74.1604 73.8408 74.1604 73.8408 74.1604L65.3703 78.9331C65.1861 78.9331 65.1861 79.1167 65.3703 79.1167L66.291 79.6674C66.4751 79.6674 66.6593 79.6674 66.6593 79.6674L74.9456 74.8947C75.1298 74.8947 75.1298 74.7111 75.1298 74.7111ZM68.6848 76.5468L67.7641 75.9961C67.58 75.9961 67.3958 75.9961 67.3958 75.9961L66.291 76.5468C66.1068 76.5468 66.1068 76.7304 66.291 76.7304L67.2117 77.2811C67.3958 77.2811 67.58 77.2811 67.58 77.2811L68.6848 76.7304V76.5468ZM70.3421 75.4454L69.4214 74.8947C69.2372 74.8947 69.0531 74.8947 69.0531 74.8947L67.9482 75.4454C67.7641 75.4454 67.7641 75.629 67.9482 75.629L68.869 76.1797C69.0531 76.1797 69.2372 76.1797 69.2372 76.1797L70.3421 75.629C70.5262 75.629 70.5262 75.4454 70.3421 75.4454ZM72.1835 74.344L71.2628 73.7933C71.0787 73.7933 70.8945 73.7933 70.8945 73.7933L69.7897 74.344C69.6055 74.344 69.6055 74.5276 69.7897 74.5276L70.7104 75.0783C70.8945 75.0783 71.0787 75.0783 71.0787 75.0783L72.1835 74.5276C72.3676 74.5276 72.3676 74.5276 72.1835 74.344ZM74.0249 73.4262L73.1042 72.8755C72.9201 72.8755 72.7359 72.8755 72.7359 72.8755L71.6311 73.4262C71.4469 73.4262 71.4469 73.6097 71.6311 73.6097L72.5518 74.1604C72.7359 74.1604 72.9201 74.1604 72.9201 74.1604L74.0249 73.6097C74.2091 73.6097 74.2091 73.4262 74.0249 73.4262ZM75.8663 72.3248L74.9456 71.7741C74.7615 71.7741 74.5774 71.7741 74.5774 71.7741L73.4725 72.3248C73.2884 72.3248 73.2884 72.5084 73.4725 72.5084L74.3932 73.0591C74.5774 73.0591 74.7615 73.0591 74.7615 73.0591L75.8663 72.5084C75.8663 72.5084 75.8663 72.5084 75.8663 72.3248ZM73.6566 67.9192L72.7359 67.3685C72.5518 67.3685 72.3676 67.3685 72.3676 67.3685L71.2628 67.9192C71.0787 67.9192 71.0787 68.1028 71.2628 68.1028L72.1835 68.6535C72.3676 68.6535 72.5518 68.6535 72.5518 68.6535L73.6566 68.1028C73.8408 68.1028 73.8408 67.9192 73.6566 67.9192ZM75.4981 66.8178L74.5774 66.2671C74.3932 66.2671 74.2091 66.2671 74.2091 66.2671L73.1042 66.8178C72.9201 66.8178 72.9201 67.0014 73.1042 67.0014L74.0249 67.5521C74.2091 67.5521 74.3932 67.5521 74.3932 67.5521L75.4981 67.0014C75.4981 67.0014 75.4981 67.0014 75.4981 66.8178ZM77.3395 65.9L76.4188 65.3493C76.2346 65.3493 76.0505 65.3493 76.0505 65.3493L74.9456 65.9C74.7615 65.9 74.7615 66.0836 74.9456 66.0836L75.8663 66.6343C76.0505 66.6343 76.2346 66.6343 76.2346 66.6343L77.3395 66.0836V65.9ZM78.9968 66.8178L78.076 66.2671C77.8919 66.2671 77.7078 66.2671 77.7078 66.2671L76.6029 66.8178C76.4188 66.8178 76.4188 67.0014 76.6029 67.0014L77.5236 67.5521C77.7078 67.5521 77.8919 67.5521 77.8919 67.5521L78.9968 67.0014V66.8178ZM80.4699 67.7357L79.5492 67.185C79.5492 67.185 79.365 67.185 79.1809 67.185L77.5236 68.1028H77.3395L76.0505 67.3685C75.8663 67.3685 75.6822 67.3685 75.4981 67.3685L72.7359 69.0206C72.5518 69.0206 72.5518 69.2042 72.7359 69.3877L75.1298 70.8563C75.3139 70.8563 75.4981 70.8563 75.6822 70.8563L80.2857 68.1028C80.654 67.9192 80.654 67.7357 80.4699 67.7357Z" fill="#263144"/>
<path d="M54.1376 79.3006L53.0327 79.8512C52.8486 79.8512 52.6645 79.8512 52.6645 79.8512L51.5596 79.3006C51.3755 79.3006 51.3755 79.117 51.5596 79.117L52.6645 78.5663C52.8486 78.5663 53.0327 78.5663 53.0327 78.5663L53.9535 79.117C54.1376 79.117 54.1376 79.117 54.1376 79.3006ZM55.979 78.0156L55.0583 77.4649C54.8742 77.4649 54.69 77.4649 54.69 77.4649L53.401 78.0156C53.2169 78.0156 53.2169 78.1992 53.401 78.1992L54.3217 78.7499C54.5059 78.7499 54.69 78.7499 54.69 78.7499L55.7949 78.1992C55.979 78.1992 55.979 78.0156 55.979 78.0156ZM57.6363 76.9142L56.7156 76.3635C56.5314 76.3635 56.3473 76.3635 56.3473 76.3635L55.2425 77.0978C55.0583 77.0978 55.0583 77.2813 55.2425 77.2813L56.1632 77.832C56.3473 77.832 56.5314 77.832 56.5314 77.832L57.6363 77.2813C57.8204 77.0978 57.8204 77.0978 57.6363 76.9142ZM59.4777 75.9964L58.557 75.4457C58.3729 75.4457 58.1887 75.4457 58.1887 75.4457L57.0839 75.9964C56.8997 75.9964 56.8997 76.1799 57.0839 76.1799L58.0046 76.7306C58.1887 76.7306 58.3729 76.7306 58.3729 76.7306L59.4777 76.1799C59.6619 76.1799 59.6619 75.9964 59.4777 75.9964ZM61.3191 74.895L60.3984 74.3443C60.2143 74.3443 60.0301 74.3443 60.0301 74.3443L58.9253 75.0786C58.7411 75.0786 58.7411 75.2621 58.9253 75.2621L59.846 75.8128C60.0301 75.8128 60.2143 75.8128 60.2143 75.8128L61.3191 75.2621C61.3191 75.0785 61.3191 74.895 61.3191 74.895ZM63.1606 73.7936L62.2398 73.2429C62.0557 73.2429 61.8716 73.2429 61.8716 73.2429L60.7667 73.7936C60.5826 73.7936 60.5826 73.9772 60.7667 73.9772L61.6874 74.5278C61.8716 74.5278 62.0557 74.5278 62.0557 74.5278L63.1606 73.9772C63.1606 73.9772 63.1606 73.9772 63.1606 73.7936ZM64.8178 72.8758L63.8971 72.3251C63.713 72.3251 63.5288 72.3251 63.5288 72.3251L62.424 72.8758C62.2398 72.8758 62.2398 73.0593 62.424 73.0593L63.3447 73.61C63.5288 73.61 63.713 73.61 63.713 73.61L64.8178 73.0593C65.002 73.0593 65.002 72.8758 64.8178 72.8758ZM66.6593 71.7744L65.7385 71.2237C65.5544 71.2237 65.3703 71.2237 65.3703 71.2237L64.2654 71.7744C64.0813 71.7744 64.0813 71.9579 64.2654 71.9579L65.1861 72.5086C65.3703 72.5086 65.5544 72.5086 65.5544 72.5086L66.6593 71.9579C66.8434 71.9579 66.8434 71.7744 66.6593 71.7744ZM68.5007 70.673L67.58 70.1223C67.3958 70.1223 67.2117 70.1223 67.2117 70.1223L66.1068 70.673C65.9227 70.673 65.9227 70.8565 66.1068 70.8565L67.0275 71.4072C67.2117 71.4072 67.3958 71.4072 67.3958 71.4072L68.5007 70.8565C68.6848 70.8565 68.6848 70.8565 68.5007 70.673ZM70.8945 69.388L69.9738 68.8373C69.7897 68.8373 69.6055 68.8373 69.6055 68.8373L67.7641 69.7552C67.58 69.7552 67.58 69.9387 67.7641 69.9387L68.6848 70.4894C68.8689 70.4894 69.0531 70.4894 69.0531 70.4894L70.7104 69.5716C70.8945 69.5716 70.8945 69.388 70.8945 69.388ZM78.6285 70.673L77.7078 70.1223C77.5236 70.1223 77.3395 70.1223 77.3395 70.1223L76.2346 70.673C76.0505 70.673 76.0505 70.8565 76.2346 70.8565L77.1553 71.4072C77.3395 71.4072 77.5236 71.4072 77.5236 71.4072L78.6285 70.8565V70.673ZM80.4699 69.5716L79.5492 69.0209C79.365 69.0209 79.1809 69.0209 79.1809 69.0209L77.8919 69.7552C77.7078 69.7552 77.7078 69.9387 77.8919 69.9387L78.8126 70.4894C78.9968 70.4894 79.1809 70.4894 79.1809 70.4894L80.2857 69.9387C80.4699 69.7551 80.4699 69.5716 80.4699 69.5716ZM82.1272 68.4702L81.2065 67.9195C81.0223 67.9195 80.8382 67.9195 80.8382 67.9195L79.7333 68.4702C79.5492 68.4702 79.5492 68.6538 79.7333 68.6538L80.654 69.2045C80.8382 69.2045 81.0223 69.2045 81.0223 69.2045L82.1272 68.6538C82.3113 68.6538 82.3113 68.6538 82.1272 68.4702ZM80.2857 71.5908L79.365 71.0401C79.1809 71.0401 78.9968 71.0401 78.9968 71.0401L77.7078 71.5908C77.5236 71.5908 77.5236 71.7744 77.7078 71.7744L78.6285 72.3251C78.8126 72.3251 78.9968 72.3251 78.9968 72.3251L80.1016 71.7744C80.2857 71.7744 80.2857 71.5908 80.2857 71.5908ZM82.1272 70.4894L81.0223 69.9387C80.8382 69.9387 80.654 69.9387 80.654 69.9387L79.5492 70.4894C79.365 70.4894 79.365 70.673 79.5492 70.673L80.4699 71.2237C80.654 71.2237 80.8382 71.2237 80.8382 71.2237L81.943 70.673C82.1272 70.673 82.1272 70.673 82.1272 70.4894ZM83.7844 69.5716L82.8637 69.0209C82.6796 69.0209 82.4955 69.0209 82.4955 69.0209L81.3906 69.5716C81.2065 69.5716 81.2065 69.7552 81.3906 69.7552L82.3113 70.3058C82.4955 70.3058 82.6796 70.3058 82.6796 70.3058L83.7844 69.7552C83.9686 69.5716 83.9686 69.5716 83.7844 69.5716ZM56.3473 79.6677L55.4266 79.117C55.2425 79.117 55.0583 79.117 55.0583 79.117L53.401 80.0348C53.2169 80.0348 53.2169 80.2184 53.401 80.2184L54.3217 80.7691C54.5059 80.7691 54.69 80.7691 54.69 80.7691L56.3473 79.8512C56.5314 79.8512 56.5314 79.6677 56.3473 79.6677ZM58.1887 78.5663L57.268 78.0156C57.0839 78.0156 56.8997 78.0156 56.8997 78.0156L55.7949 78.5663C55.6107 78.5663 55.6107 78.7499 55.7949 78.7499L56.7156 79.3006C56.8997 79.3006 57.0839 79.3006 57.0839 79.3006L58.1887 78.7499C58.1887 78.7499 58.1887 78.7499 58.1887 78.5663ZM60.0301 77.6485L58.9253 77.0978C58.7411 77.0978 58.557 77.0978 58.557 77.0978L57.4522 77.6485C57.268 77.6485 57.268 77.832 57.4522 77.832L58.3729 78.3827C58.557 78.3827 58.7411 78.3827 58.7411 78.3827L59.846 77.832C60.0301 77.6485 60.0301 77.6485 60.0301 77.6485ZM61.6874 76.5471L60.7667 75.9964C60.5826 75.9964 60.3984 75.9964 60.3984 75.9964L59.2936 76.5471C59.1094 76.5471 59.1094 76.7306 59.2936 76.7306L60.2143 77.2813C60.3984 77.2813 60.5826 77.2813 60.5826 77.2813L61.6874 76.7306C61.8716 76.7306 61.8716 76.5471 61.6874 76.5471ZM63.5288 75.4457L62.6081 74.895C62.424 74.895 62.2398 74.895 62.2398 74.895L61.135 75.4457C60.9509 75.4457 60.9509 75.6292 61.135 75.6292L62.0557 76.1799C62.2398 76.1799 62.424 76.1799 62.424 76.1799L63.5288 75.6292C63.713 75.6292 63.713 75.6292 63.5288 75.4457ZM65.3703 74.5278L64.4495 73.9772C64.2654 73.9772 64.0813 73.9772 64.0813 73.9772L62.9764 74.5278C62.7923 74.5278 62.7923 74.7114 62.9764 74.7114L63.8971 75.2621C64.0813 75.2621 64.2654 75.2621 64.2654 75.2621L65.3703 74.7114V74.5278ZM67.2117 73.4265L66.291 72.8758C66.1068 72.8758 65.9227 72.8758 65.9227 72.8758L64.8178 73.4265C64.6337 73.4265 64.6337 73.61 64.8178 73.61L65.7385 74.1607C65.9227 74.1607 66.1068 74.1607 66.1068 74.1607L67.2117 73.61V73.4265ZM68.869 72.3251L67.9482 71.7744C67.7641 71.7744 67.58 71.7744 67.58 71.7744L66.4751 72.3251C66.291 72.3251 66.291 72.5086 66.4751 72.5086L67.3958 73.0593C67.58 73.0593 67.7641 73.0593 67.7641 73.0593L68.869 72.5086C69.0531 72.5086 69.0531 72.5086 68.869 72.3251ZM70.7104 71.4072L69.7897 70.8565C69.6055 70.8565 69.4214 70.8565 69.4214 70.8565L68.3165 71.4072C68.1324 71.5908 68.1324 71.5908 68.3165 71.5908L69.2372 72.1415C69.4214 72.1415 69.6055 72.1415 69.6055 72.1415L70.7104 71.5908C70.8945 71.5908 70.8945 71.4072 70.7104 71.4072ZM72.5518 70.3058L71.6311 69.7552C71.4469 69.7552 71.2628 69.7552 71.2628 69.7552L70.1579 70.3058C69.9738 70.3058 69.9738 70.4894 70.1579 70.4894L71.0787 71.0401C71.2628 71.0401 71.4469 71.0401 71.4469 71.0401L72.5518 70.4894C72.7359 70.4894 72.7359 70.3058 72.5518 70.3058ZM57.4522 80.9526L56.5314 80.4019C56.3473 80.4019 56.1632 80.4019 56.1632 80.4019L55.0583 80.9526C54.8742 80.9526 54.8742 81.1362 55.0583 81.1362L55.979 81.6869C56.1632 81.6869 56.3473 81.6869 56.3473 81.6869L57.4522 81.1362V80.9526ZM59.1094 79.8512L58.1887 79.3006C58.0046 79.3006 57.8204 79.3006 57.8204 79.3006L56.7156 79.8512C56.5314 79.8512 56.5314 80.0348 56.7156 80.0348L57.6363 80.5855C57.8204 80.5855 58.0046 80.5855 58.0046 80.5855L59.1094 80.0348C59.2936 80.0348 59.2936 79.8512 59.1094 79.8512ZM60.9508 78.9334L60.0301 78.3827C59.846 78.3827 59.6619 78.3827 59.6619 78.3827L58.557 78.9334C58.3729 78.9334 58.3729 79.117 58.557 79.117L59.4777 79.6677C59.6619 79.6677 59.846 79.6677 59.846 79.6677L60.9508 79.117C61.135 78.9334 61.135 78.9334 60.9508 78.9334ZM62.7923 77.832L61.8716 77.2813C61.6874 77.2813 61.5033 77.2813 61.5033 77.2813L60.3984 77.832C60.2143 77.832 60.2143 78.0156 60.3984 78.0156L61.3191 78.5663C61.5033 78.5663 61.6874 78.5663 61.6874 78.5663L62.7923 78.0156V77.832ZM60.5826 82.7883L59.6619 82.2376C59.4777 82.2376 59.2936 82.2376 59.2936 82.2376L58.1887 82.7883C58.0046 82.7883 58.0046 82.9719 58.1887 82.9719L59.1094 83.5226C59.2936 83.5226 59.4777 83.5226 59.4777 83.5226L60.5826 82.9719C60.7667 82.9719 60.7667 82.7883 60.5826 82.7883ZM62.424 81.6869L61.5033 81.1362C61.3191 81.1362 61.135 81.1362 61.135 81.1362L60.0301 81.6869C59.846 81.6869 59.846 81.8705 60.0301 81.8705L60.9508 82.4212C61.135 82.4212 61.3191 82.4212 61.3191 82.4212L62.424 81.8705C62.6081 81.8705 62.6081 81.8705 62.424 81.6869ZM64.2654 80.7691L63.3447 80.2184C63.1606 80.2184 62.9764 80.2184 62.9764 80.2184L61.8716 80.7691C61.6874 80.7691 61.6874 80.9526 61.8716 80.9526L62.7923 81.5033C62.9764 81.5033 63.1606 81.5033 63.1606 81.5033L64.2654 80.9526V80.7691ZM66.1068 79.6677L65.1861 79.117C65.002 79.117 64.8178 79.117 64.8178 79.117L63.713 79.6677C63.5288 79.6677 63.5288 79.8512 63.713 79.8512L64.6337 80.4019C64.8178 80.4019 65.002 80.4019 65.002 80.4019L66.1068 79.8512V79.6677ZM77.3395 73.0593L76.4188 72.5086C76.2346 72.5086 76.0505 72.5086 76.0505 72.5086L74.3932 73.4265C74.2091 73.4265 74.2091 73.61 74.3932 73.61L75.3139 74.1607C75.4981 74.1607 75.6822 74.1607 75.6822 74.1607L77.3395 73.4265C77.5236 73.2429 77.5236 73.2429 77.3395 73.0593ZM64.6337 76.7306L63.713 76.1799C63.5288 76.1799 63.3447 76.1799 63.3447 76.1799L62.2398 76.7306C62.0557 76.7306 62.0557 76.9142 62.2398 76.9142L63.1606 77.4649C63.3447 77.4649 63.5288 77.4649 63.5288 77.4649L64.6337 76.9142C64.6337 76.9142 64.6337 76.9142 64.6337 76.7306ZM66.291 75.8128L65.3703 75.2621C65.1861 75.2621 65.002 75.2621 65.002 75.2621L63.8971 75.8128C63.713 75.8128 63.713 75.9964 63.8971 75.9964L64.8178 76.5471C65.002 76.5471 65.1861 76.5471 65.1861 76.5471L66.291 75.9964C66.4751 75.8128 66.4751 75.8128 66.291 75.8128ZM68.1324 74.7114L67.2117 74.1607C67.0275 74.1607 66.8434 74.1607 66.8434 74.1607L65.7385 74.7114C65.5544 74.7114 65.5544 74.895 65.7385 74.895L66.6593 75.4457C66.8434 75.4457 67.0275 75.4457 67.0275 75.4457L68.1324 74.895C68.3165 74.895 68.3165 74.7114 68.1324 74.7114ZM69.9738 73.61L69.0531 73.0593C68.869 73.0593 68.6848 73.0593 68.6848 73.0593L67.58 73.61C67.3958 73.61 67.3958 73.7936 67.58 73.7936L68.5007 74.3443C68.6848 74.3443 68.869 74.3443 68.869 74.3443L69.9738 73.7936C69.9738 73.7936 69.9738 73.7936 69.9738 73.61ZM71.8152 72.6922L70.8945 72.1415C70.7104 72.1415 70.5262 72.1415 70.5262 72.1415L69.4214 72.6922C69.2372 72.6922 69.2372 72.8758 69.4214 72.8758L70.3421 73.4265C70.5262 73.4265 70.7104 73.4265 70.7104 73.4265L71.8152 72.8758V72.6922ZM74.2091 71.2237L73.2884 70.673C73.1042 70.673 72.9201 70.673 72.9201 70.673L71.2628 71.5908C71.0787 71.5908 71.0787 71.7744 71.2628 71.7744L72.1835 72.3251C72.3676 72.3251 72.5518 72.3251 72.5518 72.3251L74.2091 71.4072C74.2091 71.4072 74.2091 71.4072 74.2091 71.2237ZM59.6619 81.5033L58.7411 80.9526C58.557 80.9526 58.3729 80.9526 58.3729 80.9526L56.7156 81.8705C56.5314 81.8705 56.5314 82.054 56.7156 82.054L57.6363 82.6047C57.8204 82.6047 58.0046 82.6047 58.0046 82.6047L59.6619 81.6869V81.5033ZM61.5033 80.4019L60.5826 79.8512C60.3984 79.8512 60.2143 79.8512 60.2143 79.8512L58.9253 80.5855V80.7691L59.846 81.3198C60.0301 81.3198 60.2143 81.3198 60.2143 81.3198L61.3191 80.7691C61.5033 80.5855 61.5033 80.5855 61.5033 80.4019ZM63.1606 79.4841L62.2398 78.9334C62.0557 78.9334 61.8716 78.9334 61.8716 78.9334L60.7667 79.4841C60.5826 79.4841 60.5826 79.6677 60.7667 79.6677L61.6874 80.2184C61.8716 80.2184 62.0557 80.2184 62.0557 80.2184L63.1606 79.6677C63.3447 79.6677 63.3447 79.4841 63.1606 79.4841ZM65.002 78.3827L64.0813 77.832C63.8971 77.832 63.713 77.832 63.713 77.832L62.6081 78.5663C62.424 78.5663 62.424 78.7499 62.6081 78.7499L63.5288 79.3006C63.713 79.3006 63.8971 79.3006 63.8971 79.3006L65.002 78.7499C65.1861 78.5663 65.1861 78.3827 65.002 78.3827ZM66.8434 77.4649L65.9227 76.9142C65.7385 76.9142 65.5544 76.9142 65.5544 76.9142L64.4495 77.4649C64.2654 77.4649 64.2654 77.6485 64.4495 77.6485L65.3703 78.1992C65.5544 78.1992 65.7385 78.1992 65.7385 78.1992L66.8434 77.6485C66.8434 77.4649 66.8434 77.4649 66.8434 77.4649ZM75.1298 74.5278L74.2091 73.9772C74.0249 73.9772 73.8408 73.9772 73.8408 73.9772L65.5544 78.7499C65.3703 78.7499 65.3703 78.9334 65.5544 78.9334L66.4751 79.4841C66.6592 79.4841 66.8434 79.4841 66.8434 79.4841L75.1298 74.7114V74.5278ZM68.6848 76.3635L67.7641 75.8128C67.58 75.8128 67.3958 75.8128 67.3958 75.8128L66.291 76.3635C66.1068 76.3635 66.1068 76.5471 66.291 76.5471L67.2117 77.0978C67.3958 77.0978 67.58 77.0978 67.58 77.0978L68.6848 76.5471V76.3635ZM70.3421 75.2621L69.4214 74.7114C69.2372 74.7114 69.0531 74.7114 69.0531 74.7114L67.9482 75.2621C67.7641 75.2621 67.7641 75.4457 67.9482 75.4457L68.869 75.9964C69.0531 75.9964 69.2372 75.9964 69.2372 75.9964L70.3421 75.4457C70.5262 75.4457 70.5262 75.4457 70.3421 75.2621ZM72.1835 74.3443L71.2628 73.7936C71.0787 73.7936 70.8945 73.7936 70.8945 73.7936L69.7897 74.3443C69.6055 74.3443 69.6055 74.5278 69.7897 74.5278L70.7104 75.0786C70.8945 75.0786 71.0787 75.0786 71.0787 75.0786L72.1835 74.5278C72.3676 74.3443 72.3676 74.3443 72.1835 74.3443ZM74.0249 73.2429L73.1042 72.6922C72.9201 72.6922 72.7359 72.6922 72.7359 72.6922L71.6311 73.2429C71.4469 73.2429 71.4469 73.4265 71.6311 73.4265L72.5518 73.9772C72.7359 73.9772 72.9201 73.9772 72.9201 73.9772L74.0249 73.4265C74.2091 73.4265 74.2091 73.2429 74.0249 73.2429ZM75.8663 72.1415L74.9456 71.5908C74.7615 71.5908 74.5774 71.5908 74.5774 71.5908L73.4725 72.1415C73.2884 72.1415 73.2884 72.3251 73.4725 72.3251L74.3932 72.8758C74.5774 72.8758 74.7615 72.8758 74.7615 72.8758L75.8663 72.3251C75.8663 72.3251 75.8663 72.3251 75.8663 72.1415ZM73.6566 67.7359L72.7359 67.1852C72.5518 67.1852 72.3676 67.1852 72.3676 67.1852L71.2628 67.9195C71.0787 67.9195 71.0787 68.1031 71.2628 68.1031L72.1835 68.6538C72.3676 68.6538 72.5518 68.6538 72.5518 68.6538L73.6566 67.9195C73.8408 67.9195 73.8408 67.9195 73.6566 67.7359ZM75.4981 66.8181L74.5774 66.2674C74.3932 66.2674 74.2091 66.2674 74.2091 66.2674L73.1042 66.8181C72.9201 66.8181 72.9201 67.0017 73.1042 67.0017L74.0249 67.5524C74.2091 67.5524 74.3932 67.5524 74.3932 67.5524L75.4981 67.0017C75.4981 66.8181 75.4981 66.8181 75.4981 66.8181ZM77.3395 65.7167L76.4188 65.166C76.2346 65.166 76.0505 65.166 76.0505 65.166L74.9456 65.7167C74.7615 65.7167 74.7615 65.9003 74.9456 65.9003L75.8663 66.451C76.0505 66.451 76.2346 66.451 76.2346 66.451L77.3395 65.9003V65.7167ZM78.9968 66.6345L77.8919 66.0838C77.7078 66.0838 77.5236 66.0838 77.5236 66.0838L76.4188 66.6345C76.2346 66.6345 76.2346 66.8181 76.4188 66.8181L77.3395 67.3688C77.5236 67.3688 77.7078 67.3688 77.7078 67.3688L78.8126 66.8181C78.9968 66.8181 78.9968 66.6345 78.9968 66.6345ZM80.4699 67.5524L79.5492 67.0017C79.5492 67.0017 79.365 67.0017 79.1809 67.0017L77.7078 67.9195H77.5236L76.2346 67.1852C76.0505 67.1852 75.8663 67.1852 75.6822 67.1852L72.9201 68.8373C72.7359 68.8373 72.7359 69.0209 72.9201 69.2045L75.3139 70.673C75.4981 70.673 75.6822 70.673 75.8663 70.673L80.4699 67.9195C80.654 67.7359 80.654 67.5524 80.4699 67.5524Z" fill="#364157"/>
<path d="M104.04 142.263L72.1836 160.986L91.3343 172L123.375 153.46L104.04 142.263Z" fill="#F9F9FB"/>
<path d="M123.743 153.828C123.743 153.644 123.559 153.644 123.559 153.644C123.559 153.644 123.559 153.644 123.375 153.461L91.3345 172.001L91.5186 175.489L123.559 156.948C124.112 156.581 124.112 154.562 123.743 153.828Z" fill="#DDDDDF"/>
<path d="M103.303 141.529C102.935 141.161 102.567 140.611 102.383 139.877C102.014 139.142 101.83 138.224 101.83 137.49V110.69C101.83 109.588 102.199 109.038 102.751 108.67L69.7897 125.558C69.2372 125.926 68.6848 128.128 68.6848 129.23L68.9524 157.052C68.9524 157.786 69.1366 158.704 69.5048 159.438C69.689 159.989 70.0573 160.539 70.4256 161.09C70.7938 161.457 70.978 161.641 71.3463 161.824L104.408 142.263C103.856 142.079 103.488 141.896 103.303 141.529Z" fill="#DDDDE1"/>
<path d="M104.224 105.55C102.935 104.815 101.83 104.815 100.91 105.366L68.869 124.744C69.7897 124.193 70.8946 124.193 72.1836 124.928L89.3088 134.84L121.349 115.279L104.224 105.55Z" fill="white"/>
<path d="M109.749 58.9244C108.275 60.0258 110.117 69.3876 103.119 71.774C102.383 71.9575 101.094 71.4068 100.541 71.2233C99.2525 70.8561 87.8357 66.6341 87.8357 66.6341C87.2833 66.267 85.8102 64.6149 84.5212 63.8806C83.6005 63.3299 82.6797 62.9628 81.759 62.7792C81.5749 62.7792 81.0225 62.7792 80.6542 62.7792C78.0762 63.8806 75.8665 66.0834 75.4982 66.4506C75.3141 66.6341 75.1299 66.8177 75.3141 67.0013C75.3141 67.1848 75.4982 67.1848 75.6823 67.1848C75.4982 67.7355 76.0506 67.9191 76.2348 67.9191C76.6031 67.9191 77.3396 67.5519 77.3396 67.5519C77.5238 67.5519 77.7079 67.5519 77.892 67.5519C79.5493 67.9191 81.3907 68.2862 81.759 68.6533C82.3115 69.0205 81.0225 69.7547 81.0225 69.7547C81.0225 69.7547 79.3652 69.5712 79.181 69.5712C78.6286 69.5712 77.8921 69.9383 78.0762 70.3054C78.0762 70.6726 78.4445 70.6726 78.6286 70.8561C79.181 71.0397 80.8383 71.4068 80.8383 71.4068C81.3907 71.2233 85.0736 70.6726 85.0736 70.6726C85.0736 70.6726 112.695 78.933 113.063 78.933C113.984 79.1166 116.93 74.711 117.298 70.8561C117.851 67.0013 114.72 55.4366 109.749 58.9244Z" fill="#FFCCAA"/>
<path d="M113.247 72.8753C114.905 72.6917 116.93 72.141 118.035 71.4068C118.035 68.2861 118.035 61.1271 117.483 58.19C116.009 51.5817 108.275 49.1953 106.802 58.5572C106.25 61.4942 105.882 71.0396 105.882 71.0396C107.907 72.6917 110.669 73.0589 113.247 72.8753Z" fill="#FB6D3A"/>
<path d="M112.879 104.448C112.879 104.448 84.8893 98.9414 82.3114 98.0236C74.3933 95.6373 70.3421 104.265 70.7104 105.733C65.5544 104.816 58.7412 106.1 56.5315 117.298L59.2936 115.646C62.9765 118.032 79.9175 124.641 85.6259 127.394C92.4392 130.515 111.958 122.621 112.695 114.912C112.695 114.912 112.879 105.55 112.879 104.448Z" fill="#1E2940"/>
<path d="M112.511 52.8666C105.882 52.6831 92.0709 61.4942 88.7564 64.0641C88.7564 64.0641 88.9405 73.6095 88.0198 83.7056C87.6515 89.029 85.0735 106.651 84.5211 110.506C84.5211 111.057 84.5211 111.791 85.0735 112.158C91.5185 118.216 109.012 115.462 113.063 105.733C113.063 95.8209 117.298 53.4173 112.511 52.8666Z" fill="#FB6D3A"/>
<path d="M107.907 54.7023C107.723 54.5188 107.723 54.3352 107.723 53.9681C107.723 53.4174 107.723 52.8667 107.723 52.316C107.723 51.5817 107.723 50.6639 107.539 49.9296C107.355 48.8282 106.066 49.1954 105.145 49.0118C103.672 48.4611 102.199 48.4611 100.542 48.2775C100.357 48.2775 99.9892 48.2775 99.805 48.094C99.4367 47.9104 99.2526 47.7268 98.8843 47.7268C98.7002 47.7268 98.3319 47.7268 97.9636 47.5433C97.7795 47.5433 95.938 46.9926 95.938 46.809C96.4905 49.3789 97.0429 55.4366 97.0429 58.5572C97.0429 58.5572 94.2808 60.5764 93.9125 60.76C96.6746 63.1463 103.304 61.1271 106.987 58.1901C107.539 57.6394 108.276 57.0887 108.46 56.3544C108.644 55.6202 108.091 55.253 107.907 54.7023Z" fill="#FFCCAA"/>
<path d="M94.2807 69.9383C92.8076 66.267 88.7565 65.3491 86.1785 69.204C85.0736 70.8561 84.1529 75.9959 81.3908 83.8892L80.2859 83.3386C70.1581 77.8316 69.6057 78.0152 69.2374 76.7302C68.8691 75.8124 68.3167 73.9767 67.9484 73.6096C67.9484 73.6096 66.4753 72.1411 66.107 71.9575C65.9229 71.7739 65.5546 71.7739 65.1863 71.9575C65.0022 72.1411 65.0022 72.3246 65.0022 72.5082C64.818 72.5082 64.4497 72.3246 64.2656 72.3246C61.3193 72.5082 59.662 74.711 59.4779 74.8945C59.1096 75.0781 59.1096 75.0781 59.1096 75.4452C59.1096 75.6288 59.2938 75.6288 59.4779 75.8124C59.1096 76.1795 59.4779 76.5466 59.8462 76.5466C60.2145 76.5466 60.951 76.5466 60.951 76.5466C61.1352 76.5466 61.3193 76.5466 61.5035 76.7302C62.9766 77.648 63.529 77.8316 63.7132 78.3823C68.5009 83.7057 82.6798 94.1689 85.6261 92.3333C90.2296 89.3962 96.1221 74.711 94.2807 69.9383Z" fill="#FFCCAA"/>
<path d="M87.8357 84.4398C89.4929 84.6233 91.5185 84.6233 92.8075 84.0726C93.5441 81.1356 95.2013 73.9765 95.2013 70.6724C95.3855 63.6969 88.3881 59.6584 84.8894 68.6531C83.7845 71.4066 81.2065 80.7685 81.2065 80.7685C82.6797 82.9712 85.2577 84.0726 87.8357 84.4398Z" fill="#FB6D3A"/>
<path d="M91.8869 98.0239L91.3345 110.69L91.7028 137.123C91.7028 137.674 91.5186 138.041 91.3345 138.225L123.375 119.501C123.559 119.317 123.743 118.95 123.743 118.4V79.4838L91.8869 98.0239Z" fill="#DDDDDF"/>
<path d="M123.928 79.3C123.928 79.1164 123.743 79.1164 123.743 78.9329C123.559 78.5657 123.191 78.3822 122.823 78.1986C122.27 78.015 121.902 77.8315 121.718 77.8315L89.493 96.3716L91.8869 98.0237L123.928 79.4836V79.3Z" fill="white"/>
<path d="M91.3343 172L72.1836 160.986C70.8946 160.252 69.6056 158.049 69.6056 156.214V129.413C69.6056 127.578 70.7104 126.66 72.1836 127.578L90.5977 138.224C91.3343 138.592 91.8867 138.224 91.8867 137.307V98.3907C91.8867 97.84 91.1502 97.2893 90.5977 96.9221C89.8612 96.555 89.3087 96.3714 89.3087 96.9221V134.186L72.1836 124.273C69.4214 122.621 67.0276 124.273 67.0276 128.128V154.929C67.0276 158.6 69.2373 163.006 72.1836 164.658L91.3343 175.672C92.0709 175.855 92.0709 172.368 91.3343 172Z" fill="#EBECF3"/>
<path d="M91.7029 44.0555C91.887 46.0747 92.2553 47.9104 92.4395 49.9296C92.8077 51.7653 93.176 53.6009 93.5443 55.253C93.5443 55.6201 93.7284 55.9873 93.9126 56.3544C94.0967 56.7215 94.465 56.9051 94.8333 57.2722C96.6747 58.3736 98.1479 58.0065 100.173 57.8229C101.831 57.6394 103.304 57.0887 104.777 56.3544C105.698 55.9873 106.434 55.4366 106.987 54.5187C107.355 53.7845 107.539 53.0502 107.539 52.1324C107.539 48.2775 105.882 44.7898 104.04 41.4856C103.488 40.5678 103.12 39.6499 102.383 38.9157C100.91 37.2636 98.5161 36.7129 96.1223 36.3458C94.8333 36.1622 93.176 35.9786 92.2553 37.08C91.5187 37.8143 91.3346 38.9157 91.3346 39.8335C91.3346 40.9349 91.5187 42.587 91.7029 44.0555Z" fill="#FFCCAA"/>
<path d="M90.5978 38.5487C90.782 40.2007 91.3344 41.8528 91.5185 42.5871C91.5185 42.7707 91.7027 43.1378 91.8868 43.3214C92.2551 44.0556 92.8075 44.7899 92.9917 45.5241C93.1758 46.442 92.9917 47.5434 93.7283 48.2776C93.9124 48.4612 94.0965 48.6447 94.2807 48.4612C94.4648 48.4612 94.649 48.0941 94.649 47.9105C94.8331 47.3598 95.0172 46.2584 95.5697 46.0748C96.3062 45.8913 97.227 46.9927 97.4111 47.5434C97.7794 48.4612 97.4111 49.379 97.5952 50.2968C97.7794 52.3161 98.3318 53.9681 100.357 54.1517C101.646 54.3353 103.119 54.3353 104.408 53.9681C108.091 53.0503 110.485 50.1133 110.853 46.6255C111.406 42.9542 111.222 38.3651 109.012 35.0609C107.539 32.6746 104.408 31.9403 101.462 32.3074C98.8842 32.6746 97.0428 32.6746 93.36 34.6938C92.071 35.428 90.4137 37.2637 90.5978 38.5487Z" fill="#2E2C34"/>
<path d="M90.5978 38.5485C90.782 40.2006 91.3344 41.8527 91.5185 42.5869C91.5185 42.7705 91.7027 43.1376 91.8868 43.3212C95.3855 40.7513 96.6745 37.8142 93.5441 34.6936C92.0709 35.4279 90.4137 37.2635 90.5978 38.5485Z" fill="#2E2C34"/>
<path d="M55.7947 62.2285L42.5365 69.9383L48.0608 73.0589L61.319 65.5327L55.7947 62.2285Z" fill="#1E2A3D"/>
<path d="M61.3191 65.5331L48.0609 73.0592C48.0609 73.2428 48.0609 73.6099 48.0609 73.7935L61.3191 66.0837C61.5033 66.2673 61.5033 65.7166 61.3191 65.5331Z" fill="#1D293C"/>
<path d="M54.69 60.9438C54.5059 60.3931 54.3217 59.8424 54.5059 59.4753L58.1887 51.582L44.9305 59.2917L41.2477 67.185C41.0635 67.5522 41.0635 68.1029 41.4318 68.6536C41.6159 69.0207 41.6928 69.271 41.8769 69.4545C42.0611 69.6381 42.3876 69.9652 42.5367 69.9385L55.7949 62.2288C55.6107 62.0452 55.4266 61.8616 55.2424 61.6781C55.0583 61.4945 54.8742 61.3109 54.69 60.9438Z" fill="#172030"/>
<path d="M48.061 73.0592L42.5367 69.9386C42.1684 69.7551 41.8001 69.2044 41.4319 68.6537C41.2477 68.103 41.0636 67.5523 41.2477 67.1852L44.9306 59.2918V59.1083V51.3985C44.9306 51.215 44.7464 50.8478 44.5623 50.8478C44.3781 50.6643 44.194 50.8478 44.194 51.0314V58.7411L40.6953 66.6345C40.5112 67.1852 40.5112 67.9194 40.8794 68.8372C41.2477 69.7551 41.8001 70.4893 42.5367 70.8565L48.061 73.7838C48.2451 73.7838 48.2451 73.2428 48.061 73.0592Z" fill="#1D293C"/>
<path d="M58.1887 43.5052C58.1887 43.5052 58.1887 43.3216 58.0045 43.3216L57.8204 43.1381H57.6363L44.3781 50.8478H44.5622C44.5622 50.8478 44.7463 50.8478 44.7463 51.0314L44.9305 51.2149V51.3985V59.1083V59.2918L58.1887 51.5821V51.3985V43.6888V43.5052Z" fill="#B2B9BB"/>
<path d="M80.6541 0.734131L80.8383 41.8528L20.4398 76.5467L19.8873 69.5712L19.519 34.8773L80.6541 0.734131Z" fill="#1E2A3D"/>
<path d="M20.4398 76.5467L19.3349 75.9961L19.1508 34.6938L20.4398 35.4281V76.5467Z" fill="#1D293C"/>
<path d="M20.4398 35.4281L19.1508 34.6939L79.5493 0L80.6542 0.734262L20.4398 35.4281Z" fill="#34455F"/>
<path opacity="0.1" d="M20.8081 35.6117L80.2859 1.46851V35.061L20.8081 69.2042V35.6117Z" fill="#A39DAB"/>
<path opacity="0.8" d="M26.148 35.2445C26.8846 34.8774 27.2528 35.9788 26.7004 36.8966C26.3321 37.8144 25.5956 37.998 25.5956 36.8966C25.2273 37.6309 24.4907 39.0994 24.4907 38.1816C24.4907 37.6309 24.6748 36.5295 24.6748 35.9788C24.6748 35.7952 24.6748 35.7952 24.859 35.7952C24.859 35.7952 24.859 35.7952 24.859 35.9788C24.6748 36.7131 24.6748 37.4473 24.6748 37.998C24.859 37.6309 25.0431 37.4473 25.2273 37.0802C25.5956 36.5295 25.7797 36.3459 25.7797 36.8966C25.7797 37.0802 25.9638 37.2637 26.148 37.2637C26.8846 36.8966 26.8846 34.8774 26.148 35.2445C25.9638 35.6117 26.148 35.6117 26.148 35.2445C25.9638 35.4281 25.9638 35.4281 26.148 35.2445ZM30.015 34.5103C30.015 34.5103 28.1735 35.9788 28.1735 35.7952C27.9894 35.7952 30.015 34.3267 30.015 34.5103ZM30.015 33.776L29.6467 33.9596C27.0687 35.9788 28.3577 34.6938 30.015 33.776C30.015 33.5924 30.1991 33.776 30.015 33.776ZM31.4881 35.4281C31.304 35.6117 31.1198 35.9788 31.1198 35.6117C31.1198 35.4281 31.4881 34.1431 31.4881 34.1431C30.9357 35.2445 30.015 35.4281 30.5674 34.1431C31.1198 32.6746 31.8564 32.491 31.8564 32.8582C31.8564 33.0417 31.8564 33.0417 31.6722 32.8582C31.1198 32.6746 30.1991 35.061 30.7515 34.6938C31.1198 34.5103 31.4881 33.9596 31.6722 33.2253C31.6722 33.2253 31.8564 33.0417 31.8564 33.2253C31.8564 33.4089 31.304 35.2445 31.304 35.4281C31.8564 34.8774 32.0405 34.6938 31.4881 35.4281ZM32.593 31.5732C32.7771 31.7568 32.593 32.3075 32.4088 32.491C31.8564 35.061 33.5137 33.0417 33.5137 31.5732C33.5137 31.3897 33.5137 30.839 33.6978 31.0225C33.8819 31.2061 33.5137 32.6746 33.5137 33.0417C32.9612 34.3267 32.2247 34.3267 32.2247 33.776C32.2247 33.5924 32.593 31.5732 32.593 31.5732ZM34.9868 32.8582C34.9868 32.6746 36.2758 28.8197 36.2758 29.0033C36.4599 29.1869 35.1709 32.491 34.9868 32.6746C35.1709 32.8582 35.1709 33.0417 34.9868 32.8582ZM37.3806 29.1869L37.1965 29.3704C37.0124 29.3704 37.7489 28.269 38.1172 28.4526C38.6696 28.6362 37.7489 30.1047 37.3806 30.4718C37.1965 30.6554 37.0124 31.0225 36.8282 31.2061C37.0124 31.2061 38.1172 30.1047 38.1172 30.2883C38.1172 30.4718 37.0124 31.2061 36.8282 31.2061C36.6441 31.2061 36.6441 31.2061 36.6441 31.2061C36.6441 31.0225 37.0124 30.6554 37.1965 30.4718C38.3014 29.0033 38.1172 28.269 37.7489 28.6362C37.5648 28.8197 37.3806 29.0033 37.3806 29.1869ZM40.5111 28.269C40.6952 28.269 40.6952 28.269 40.6952 28.269L39.7745 29.0033C38.1172 30.2883 38.8538 29.3704 40.5111 28.269ZM40.1428 28.0855C38.6696 29.1869 38.4855 29.0033 39.7745 28.269C40.8793 27.3512 41.4318 27.1676 40.1428 28.0855ZM41.4318 29.7376C41.4318 29.7376 41.2476 30.1047 41.0635 30.1047C40.8793 30.2883 41.2476 28.8197 41.4318 28.4526C41.2476 28.8197 40.6952 29.3704 40.5111 29.3704C39.9586 29.1869 41.0635 27.3512 41.4318 27.1676C41.8 26.9841 41.9842 27.5348 41.6159 27.3512C41.4318 27.3512 41.2476 27.5348 41.0635 27.9019C39.7745 30.1047 41.2476 29.554 41.6159 27.9019C41.6159 27.9019 41.8 27.7183 41.8 27.9019C41.8 28.0855 41.2476 29.9211 41.2476 30.1047C41.8 29.1869 42.1683 29.0033 41.4318 29.7376ZM43.089 26.4334C43.2732 26.4334 42.5366 26.9841 42.5366 26.9841C42.1683 27.1676 42.3525 26.8005 42.7208 26.4334C43.2732 25.6991 43.089 25.332 42.7208 25.6991C42.5366 25.8827 42.3525 25.8827 42.7208 25.5156C43.089 24.9649 43.4573 25.332 43.089 26.0663C42.9049 26.2498 42.7208 26.4334 42.5366 26.8005C43.089 26.2498 43.089 26.4334 43.089 26.4334ZM43.4573 28.0855C43.2732 28.0855 44.7463 24.047 44.7463 24.2306C45.1146 24.047 44.5622 25.332 44.378 25.6991C44.0097 26.617 44.0097 26.9841 43.6415 27.9019C43.4573 27.9019 43.4573 28.0855 43.4573 28.0855ZM45.667 24.4142C45.4829 24.5977 45.2987 24.5977 45.667 24.2306C46.5877 23.1292 47.5084 23.8635 45.2987 26.617C45.4829 26.617 46.5877 25.5156 46.5877 25.6991C46.5877 25.8827 45.4829 26.617 45.2987 26.617C45.1146 26.617 45.1146 26.617 45.1146 26.617C45.1146 26.4334 45.4829 26.0663 45.667 25.8827C46.956 23.8635 46.4036 23.4963 45.667 24.4142ZM49.3499 21.8442V22.7621C48.9816 21.8442 48.0609 22.5785 47.6926 23.4963C47.1402 25.332 48.4292 25.5156 49.3499 23.8635C49.1657 24.2306 48.9816 24.4142 48.9816 24.5977C47.1402 26.8005 46.2194 23.6799 48.4292 22.3949C48.7974 22.2114 49.1657 22.2114 49.1657 22.2114C49.1657 22.0278 49.1657 22.0278 49.3499 21.8442ZM51.7437 22.0278C51.7437 22.0278 49.9023 23.4963 49.9023 23.3128C49.7181 23.3128 51.7437 21.8442 51.7437 22.0278ZM51.7437 21.2936L51.3754 21.4771C48.7974 23.4963 50.0864 22.0278 51.7437 21.2936C51.7437 21.11 51.7437 21.2936 51.7437 21.2936ZM52.8486 20.1922C52.2961 20.1922 51.5596 21.8442 51.5596 22.3949C51.5596 22.7621 51.9278 22.7621 52.4803 22.0278C53.0327 21.2936 52.8486 21.8442 52.2961 22.3949C51.5596 23.1292 50.823 22.9456 51.3754 21.6607C51.7437 21.11 52.2961 20.1922 52.8486 20.1922C53.0327 19.825 53.2168 20.1922 52.8486 20.1922ZM53.9534 19.4579C54.1376 19.6415 53.5851 21.2936 53.7693 21.6607C53.9534 21.8443 55.0583 20.5593 54.8741 19.0908C54.8741 18.9072 54.8741 18.9072 54.8741 18.9072C54.8741 18.9072 55.0583 18.9072 55.0583 19.0908C55.0583 21.4771 53.0327 23.4963 53.5851 20.7429C53.7693 19.825 53.7693 19.4579 53.9534 19.4579C53.7693 19.4579 53.7693 19.2743 53.9534 19.4579ZM57.4521 18.1729C57.4521 17.9894 57.4521 17.9894 57.4521 18.1729C57.6362 17.9894 57.6362 17.9894 57.4521 18.1729C57.4521 18.3565 56.8997 18.7236 56.8997 18.7236H56.7155L57.0838 18.1729C57.268 17.9894 57.4521 17.6222 57.4521 17.4387C57.4521 17.2551 57.268 17.2551 57.0838 17.4387L56.8997 17.6222C56.7155 17.6222 56.8997 17.4387 56.8997 17.4387C57.0838 17.2551 57.268 17.0715 57.4521 17.2551C57.6362 17.4387 57.4521 17.8058 57.4521 17.9894C57.268 18.1729 57.0838 18.3565 56.8997 18.7236C57.4521 17.9894 57.4521 18.1729 57.4521 18.1729ZM57.8204 19.825C57.6362 19.825 58.9252 16.1537 59.1094 16.1537V15.9702C59.1094 15.9702 59.2935 15.9702 59.2935 16.1537C59.2935 16.3373 58.9252 17.2551 58.9252 17.4387C58.557 18.3565 58.557 18.7236 58.1887 19.6415C58.0045 19.6415 58.0045 19.825 57.8204 19.825ZM60.2142 16.1537C60.0301 16.1537 60.0301 16.1537 60.2142 16.1537C60.0301 16.3373 59.846 16.3373 60.2142 15.9702C60.3984 15.7866 60.7667 15.4195 60.9508 15.603C61.1349 15.7866 61.1349 16.1537 60.9508 16.5209C60.7667 17.0715 60.0301 17.9894 59.6618 18.5401C59.6618 18.5401 60.0301 18.3565 60.2142 18.1729C60.9508 17.6222 60.9508 17.6222 60.9508 17.6222C60.9508 17.8058 59.8459 18.7236 59.4777 18.7236C59.4777 18.7236 59.4777 18.5401 59.6618 18.5401C59.6618 18.3565 59.8459 18.1729 60.0301 18.1729C61.5032 15.603 60.7667 15.0523 60.2142 16.1537ZM25.0431 41.3022C25.0431 41.3022 25.0431 41.1186 25.0431 41.3022C25.4114 41.4858 24.6748 43.8721 24.6748 43.8721C24.4907 44.0557 24.6748 42.9543 24.859 42.5871C25.0431 41.4858 25.0431 41.3022 25.0431 41.3022ZM26.148 43.6885L26.3321 41.3022C26.3321 41.1186 26.5163 41.1186 26.5163 41.3022C26.5163 41.4858 26.3321 43.8721 26.148 43.6885ZM29.0943 40.3844C29.0943 40.3844 27.2528 41.8529 27.2528 41.6693C26.8846 41.6693 29.0943 40.2008 29.0943 40.3844ZM29.0943 39.6501L28.726 39.8337C26.148 41.8529 27.2528 40.5679 29.0943 39.6501C29.0943 39.4665 29.0943 39.6501 29.0943 39.6501ZM29.8308 38.5487C29.8308 38.5487 30.015 38.3651 29.8308 38.5487C30.015 38.7323 29.4625 41.3022 29.4625 41.1186C29.2784 41.1186 29.8308 38.3651 29.8308 38.5487ZM31.304 38.5487L31.1198 38.7323C30.9357 38.7323 31.6722 37.6309 32.0405 37.8144C32.7771 38.1816 31.304 40.0172 30.7515 40.5679C30.9357 40.3844 31.8564 39.8337 32.0405 39.6501C32.5929 39.4665 30.5674 41.1186 30.7515 40.5679C30.7515 40.3844 31.4881 39.4665 31.6722 39.283C32.4088 38.1816 32.0405 37.8144 31.8564 37.8144C31.6722 38.3651 31.4881 38.5487 31.304 38.5487ZM33.8819 37.6309C33.8819 37.6309 32.0405 39.0994 32.0405 38.9158C31.8564 38.9158 33.8819 37.4473 33.8819 37.6309ZM33.8819 36.8966L33.5137 37.0802C30.9357 39.0994 32.0405 37.8144 33.8819 36.8966C33.8819 36.7131 34.0661 36.7131 33.8819 36.8966ZM34.6185 35.7952C34.6185 35.6117 34.8027 35.6117 34.6185 35.7952C34.9868 35.9788 34.2502 38.3651 34.2502 38.3651C34.0661 38.5487 34.2502 37.4473 34.4344 37.0802C34.6185 35.9788 34.6185 35.7952 34.6185 35.7952ZM35.3551 38.1816C35.7234 37.8144 35.5392 37.6309 35.5392 37.6309C35.3551 37.6309 35.5392 37.2637 35.7234 37.2637C35.9075 37.2637 35.7234 37.8144 35.5392 37.998C35.1709 38.5487 34.9868 38.7323 35.3551 38.1816ZM37.9331 33.9596C38.1172 34.1431 37.9331 34.6938 37.7489 34.8774C37.1965 37.4473 38.8538 35.4281 38.8538 33.9596C38.8538 33.776 38.8538 33.2253 39.0379 33.4089C39.4062 33.5924 38.8538 35.7952 37.9331 36.3459C37.5648 36.5295 37.3806 36.3459 37.3806 35.9788C37.3806 35.9788 37.7489 33.9596 37.9331 33.9596C37.7489 33.9596 37.7489 33.9596 37.9331 33.9596ZM40.5111 35.2445C40.5111 35.2445 40.6952 34.1431 40.6952 33.0417C40.6952 32.8582 40.8793 32.8582 40.8793 33.0417C40.8793 35.2445 40.5111 35.6117 40.5111 35.2445ZM42.5366 32.491C42.5366 32.6746 42.3525 33.776 42.3525 33.4089C42.3525 33.4089 42.3525 32.6746 42.5366 32.491C42.3525 32.6746 41.8 33.0417 41.6159 33.0417C41.2476 32.8582 42.1683 32.491 42.5366 32.491C42.3525 32.3075 42.5366 31.5732 42.5366 31.5732C42.5366 31.5732 42.7208 31.5732 42.7208 31.7568C42.7208 31.7568 42.7208 32.1239 42.5366 32.491C42.7208 32.3075 43.2732 31.9403 43.4573 31.9403C43.6415 31.5732 43.8256 31.7568 42.5366 32.491ZM44.378 30.2883C44.5622 30.4718 44.378 31.0225 44.1939 31.2061C43.6415 33.776 45.4829 31.7568 45.2987 29.9211C45.2987 29.7376 45.2987 29.7376 45.2987 29.7376C45.2987 29.7376 45.4829 29.7376 45.4829 29.9211C45.4829 32.491 43.4573 34.1431 44.0097 31.5732C44.1939 30.6554 44.1939 30.2883 44.378 30.2883C44.1939 30.2883 44.1939 30.1047 44.378 30.2883ZM47.5084 29.3704L47.3243 29.554C47.1402 29.554 47.8767 28.4526 48.245 28.6362C48.9816 29.0033 47.5084 30.839 46.956 31.3897C47.1402 31.2061 48.0609 30.6554 48.245 30.4718C48.7974 30.1047 47.6926 31.2061 47.1402 31.3897C46.956 31.3897 46.956 31.3897 46.956 31.3897C46.956 31.2061 47.3243 30.839 47.5084 30.6554C47.8767 30.2883 48.6133 29.0033 48.245 28.6362H48.0609C47.6926 29.0033 47.5084 29.1869 47.5084 29.3704ZM48.7974 29.0033C51.1913 27.3512 49.3499 29.0033 48.0609 29.7376C47.8767 29.554 48.6133 29.1869 48.7974 29.0033ZM49.9023 27.5348C49.9023 27.5348 49.3499 27.9019 49.1657 28.0855C48.9816 28.0855 48.0609 28.8197 48.0609 28.8197H47.8767C48.0609 28.6362 49.7181 27.7183 49.9023 27.5348C50.0864 27.5348 50.0864 27.5348 49.9023 27.5348ZM50.823 26.617C51.0071 26.8005 50.823 27.3512 50.6389 27.5348C50.0864 30.1047 51.7437 28.0855 51.7437 26.2498C51.7437 26.0663 51.7437 26.0663 51.7437 26.0663C52.112 25.8827 51.9278 28.4526 50.823 29.0033C50.4547 29.1869 50.2706 29.0033 50.2706 28.6362C50.2706 28.4526 50.6389 26.617 50.823 26.617C50.6389 26.617 50.6389 26.4334 50.823 26.617ZM52.8486 28.269C52.8486 28.269 53.2168 27.7183 53.2168 27.5348C53.2168 27.3512 53.2168 27.3512 53.0327 27.3512C52.8486 27.3512 52.8486 27.3512 53.0327 27.1676C53.2168 26.8005 53.7693 26.9841 53.2168 27.7183C53.2168 27.9019 52.8486 28.4526 52.8486 28.269ZM54.69 26.4334L55.0583 24.2306C54.69 24.2306 55.6107 23.4963 56.1631 23.4963C56.7155 23.4963 56.1631 24.4142 55.7948 24.7813C55.2424 25.332 54.8741 25.332 55.979 25.6991C55.979 25.6991 56.1631 25.6991 56.1631 25.8827C56.1631 26.2498 55.0583 25.8827 54.8741 25.6991C54.8741 25.8827 54.69 26.2498 54.69 26.617C54.8741 26.4334 54.8741 26.617 54.69 26.4334ZM55.2424 25.1484C55.4265 24.7813 56.3473 24.2306 56.3473 23.6799C56.3473 23.3128 55.7948 23.6799 55.4265 24.047C55.4265 24.2306 55.2424 25.1484 55.2424 25.1484ZM57.6362 25.332C57.6362 25.332 57.8204 24.2306 57.8204 23.1292C57.8204 22.9456 58.0045 22.9456 58.0045 23.1292C58.0045 25.5156 57.6362 25.8827 57.6362 25.332ZM59.6618 22.5785C59.6618 22.5785 59.4777 23.4963 59.4777 23.6799C59.2935 23.6799 59.4777 22.9456 59.6618 22.5785C59.4777 22.7621 58.7411 23.1292 58.7411 23.1292C58.7411 23.1292 58.557 22.9456 58.7411 22.9456C59.1094 22.7621 59.1094 22.7621 59.6618 22.5785C59.4777 22.3949 59.6618 21.6607 59.6618 21.6607C59.846 21.4771 59.6618 22.2114 59.6618 22.3949C59.846 22.2114 60.3984 21.8442 60.5825 21.8442C60.7667 21.6607 60.7667 21.8443 59.6618 22.5785ZM60.9508 22.9456C60.7667 22.9456 61.1349 22.0278 61.1349 21.8442C61.3191 21.2936 61.3191 20.9264 61.3191 20.7429C60.9508 20.7429 61.8715 20.0086 62.4239 20.0086C62.6081 20.0086 62.6081 20.0086 62.6081 20.1922C62.6081 20.5593 62.2398 20.9264 62.0557 21.11C61.5032 21.6607 61.1349 21.6607 62.2398 22.0278C62.2398 22.0278 62.4239 22.0278 62.4239 22.2114C62.4239 22.3949 61.8715 22.3949 61.6874 22.2114C61.3191 22.2114 61.1349 22.0278 61.1349 21.8442C61.1349 22.0278 60.9508 22.2114 60.9508 22.5785V22.7621C60.9508 22.7621 60.9508 23.1292 60.9508 22.9456ZM61.3191 21.6607C61.6874 21.2936 61.8715 21.11 62.2398 20.5593C62.6081 20.0086 62.2398 19.825 61.5032 20.5593C61.5032 20.7429 61.3191 21.4771 61.3191 21.6607ZM64.2654 19.825L64.0812 20.0086C63.8971 20.0086 64.6336 18.9072 65.0019 19.0908C65.5543 19.2743 64.6336 20.7429 64.2654 21.11C64.0812 21.2936 63.8971 21.6607 63.7129 21.8442C63.7129 21.8442 64.0812 21.6607 64.2654 21.4771C65.3702 20.7429 65.1861 20.9264 64.4495 21.4771C64.2654 21.6607 63.5288 22.2114 63.5288 22.0278C63.5288 21.8442 64.2654 20.9264 64.4495 20.7429C65.1861 19.6415 64.8178 19.2743 64.6336 19.2743C64.4495 19.4579 64.2654 19.6415 64.2654 19.825ZM65.5543 19.4579C67.2116 18.3565 67.2116 18.5401 65.3702 19.825C64.6336 20.1922 64.4495 20.1922 65.5543 19.4579ZM66.6592 17.9894L66.2909 18.1729C63.7129 20.1922 64.8178 18.9072 66.6592 17.9894C66.8433 17.8058 66.8433 17.9894 66.6592 17.9894ZM67.0275 19.4579L67.3958 17.2551C67.0275 17.2551 67.9482 16.5209 68.5006 16.5209C68.8689 16.5209 68.6848 17.0715 68.5006 17.2551C67.9482 18.1729 67.0275 17.9894 68.1323 18.3565C69.2372 18.7236 67.5799 18.7236 67.3958 18.1729C67.3958 18.3565 67.2116 18.7236 67.2116 19.0908C67.2116 19.2743 67.0275 19.4579 67.0275 19.4579ZM67.3958 18.1729C67.5799 17.8058 68.5006 17.2551 68.5006 16.7044C68.5006 16.3373 67.9482 16.7044 67.5799 17.0715C67.5799 17.2551 67.3958 17.9894 67.3958 18.1729ZM26.3321 47.9105L26.7004 48.4612C26.7004 48.6448 26.5163 48.6448 26.3321 48.0941C24.859 50.1133 25.2273 46.442 26.5163 45.7078C26.8846 45.3406 27.437 46.2585 26.3321 47.9105ZM26.148 47.9105C25.9638 47.5434 25.7797 46.8091 25.9638 46.442C25.0431 47.727 25.2273 49.1955 26.148 47.9105ZM26.3321 47.727C26.5163 47.3598 27.0687 46.2585 26.7004 45.8913C26.3321 45.5242 25.7797 46.442 26.3321 47.727ZM29.4625 45.3406C29.4625 45.3406 27.6211 46.8091 27.6211 46.6256C27.437 46.6256 29.4625 45.1571 29.4625 45.3406ZM29.4625 44.6064L29.0943 44.7899C26.5163 46.8091 27.6211 45.5242 29.4625 44.6064C29.6467 44.4228 29.6467 44.6064 29.4625 44.6064ZM30.3832 43.505C30.3832 43.3214 30.3832 43.3214 30.3832 43.505C30.7515 43.6885 30.015 46.0749 30.015 46.0749C29.8308 46.2585 30.015 45.1571 30.1991 44.7899C30.3832 43.6885 30.3832 43.505 30.3832 43.505ZM31.4881 43.1378C31.304 43.1378 31.304 43.1378 31.6722 42.7707C31.8564 42.5871 32.2247 42.22 32.4088 42.4036C33.1454 42.7707 31.6722 44.6064 31.1198 45.1571C31.304 45.1571 32.4088 44.0557 32.4088 44.2392C32.4088 44.4228 31.304 45.1571 31.1198 45.1571C30.9357 45.1571 30.9357 45.1571 30.9357 45.1571C30.9357 44.9735 31.304 44.6064 31.4881 44.4228C32.593 42.9543 32.4088 42.22 32.0405 42.5871C31.8564 42.7707 31.6722 43.1378 31.4881 43.1378ZM33.1454 44.2392L33.5137 42.0364C33.3295 42.0364 33.5137 41.8529 33.6978 41.6693C34.8027 40.7515 35.5392 41.3022 33.8819 42.7707C33.6978 42.9543 33.5137 42.9543 34.2502 43.1378C35.3551 43.505 33.6978 43.505 33.5137 42.9543C33.5137 43.1378 33.3295 44.2392 33.1454 44.2392ZM33.6978 42.7707L33.8819 42.5871C35.1709 41.3022 34.8027 40.9351 33.8819 41.8529L33.6978 42.7707ZM35.7234 41.1186C35.7234 41.4858 35.1709 42.7707 35.5392 42.5871C35.9075 42.4036 36.0916 42.0364 36.0916 42.0364C36.4599 41.8529 35.5392 42.9543 35.3551 42.7707C35.1709 42.7707 35.5392 41.4858 35.5392 41.1186C35.1709 41.6693 34.9868 41.4858 35.7234 41.1186C35.5392 40.7515 35.5392 40.7515 35.7234 40.5679V40.3844C35.9075 40.2008 35.9075 40.7515 35.7234 40.9351C36.4599 40.3844 36.8282 40.3844 35.7234 41.1186ZM68.6848 12.8495H69.2372C69.2372 13.0331 68.6848 13.2167 68.3165 13.0331C67.3958 12.666 68.3165 10.6468 68.8689 9.72893C69.053 9.54537 69.6055 8.62754 69.6055 8.99467C69.6055 8.99467 68.8689 10.0961 68.6848 10.2796C68.3165 11.1975 67.764 12.666 68.6848 12.8495ZM69.7896 12.1153L70.1579 9.9125C69.9738 9.72893 70.5262 9.17824 70.7103 9.17824C71.0786 8.99467 71.4469 8.99467 71.4469 9.3618C71.4469 9.72893 71.0786 10.0961 70.8945 10.2796C70.342 10.8303 69.9738 10.8303 71.0786 11.0139C71.4469 11.1975 71.2627 11.381 70.7103 11.1975C70.342 11.1975 70.1579 11.0139 70.1579 10.8303C70.1579 11.0139 69.9738 12.1153 69.7896 12.1153ZM70.1579 10.8303C70.342 10.4632 71.2627 9.9125 71.2627 9.3618C71.2627 8.99467 70.7103 9.3618 70.342 9.72893C70.342 9.72893 70.1579 10.6468 70.1579 10.8303ZM73.4725 8.99467C73.6566 8.99467 73.6566 8.99467 73.6566 8.99467C73.6566 8.99467 73.1042 9.54537 72.92 9.54537C70.7103 11.0139 71.8152 9.9125 73.4725 8.99467ZM73.6566 8.07684L73.2883 8.26041C70.7103 10.4632 71.9993 8.99467 73.6566 8.07684C73.8407 7.89328 73.8407 8.07684 73.6566 8.07684ZM74.7614 7.15902C75.1297 6.42475 75.498 6.42475 75.498 7.34258C75.498 7.70971 75.498 8.07684 75.3139 8.44397C74.5773 10.0961 73.6566 8.81111 74.7614 7.15902ZM75.3139 7.34258C75.3139 6.60832 75.1297 6.60832 74.7614 7.15902C74.5773 7.34258 74.5773 7.52615 74.5773 7.89328C74.0249 9.72893 75.3139 8.99467 75.3139 7.34258ZM75.8663 8.99467C75.6822 9.17824 75.498 9.17824 75.498 9.17824L76.0504 8.44397C76.6029 7.70971 76.787 7.34258 76.787 6.97545C76.9711 6.60832 76.9711 6.42475 76.9711 6.24119C76.9711 6.05762 76.9711 5.87406 76.9711 5.87406C76.9711 5.69049 76.787 5.69049 76.787 5.69049H76.6029H76.4187C76.4187 5.69049 76.4187 5.69049 76.6029 5.50693C76.787 5.50693 76.9711 5.50693 77.1553 5.50693C77.3394 5.69049 77.3394 5.87406 77.3394 6.24119C77.3394 6.79189 77.1553 7.34258 76.9711 7.70971C76.787 7.89328 76.787 8.07684 76.6029 8.44397C76.2346 8.26041 76.0504 8.62754 75.8663 8.99467ZM69.053 22.2114C68.8689 22.3949 68.5006 22.5785 68.1323 22.7621C68.1323 22.9456 67.764 24.2306 67.764 24.047C67.764 24.047 67.7641 23.4963 67.9482 23.3128C68.1323 22.3949 68.3165 21.4771 68.3165 21.4771C68.5006 21.2936 69.6055 20.5593 69.6055 20.7429C69.6055 20.7429 69.4213 20.9264 69.2372 20.9264C69.053 21.11 68.8689 21.11 68.6848 21.2936C68.5006 21.2936 68.5006 21.4771 68.3165 21.6607C68.3165 21.8443 68.1323 22.3949 68.1323 22.5785C68.6848 22.3949 69.4213 21.8443 69.053 22.2114ZM70.8945 21.8442C70.1579 23.4963 68.8689 23.3128 70.342 21.11C71.0786 20.0086 71.4469 20.5593 71.2627 21.11C71.2627 21.11 71.0786 21.6607 70.8945 21.8442C71.0786 21.8442 71.0786 22.2114 71.0786 22.2114C71.0786 22.2114 71.0786 22.2114 70.8945 22.2114C70.8945 22.3949 70.8945 22.0278 70.8945 21.8442ZM71.0786 21.11C71.0786 20.9264 71.0786 20.9264 71.0786 20.7429C70.8945 20.5593 70.5262 20.9264 70.5262 21.2936C69.053 23.3128 70.5262 23.1292 71.0786 21.11ZM72.5517 20.5593C73.8407 19.6415 74.209 19.6415 73.1042 20.3757C73.1042 20.3757 71.9993 21.2936 71.8152 21.11C71.631 21.11 72.3676 20.7429 72.5517 20.5593ZM73.6566 19.0908C73.4725 19.2743 71.9993 20.1922 71.8152 20.3757H71.631C71.8152 20.1922 73.4725 19.0908 73.6566 19.0908C73.8407 18.9072 73.8407 19.0908 73.6566 19.0908ZM74.5773 17.9894C74.5773 17.9894 74.5773 17.8058 74.5773 17.9894C74.7614 18.1729 74.5773 19.2743 74.5773 19.4579C74.5773 19.4579 74.3932 20.5593 74.209 20.5593C74.0249 20.7429 74.209 19.6415 74.3932 19.2743C74.5773 18.1729 74.5773 17.9894 74.5773 17.9894ZM75.1297 20.0086C74.9456 20.0086 74.9456 19.825 74.9456 19.825C74.9456 19.825 75.1297 19.825 75.3139 19.825C75.3139 19.825 75.3139 19.825 75.3139 19.6415C75.3139 19.6415 75.6821 17.9894 75.6821 17.6222C75.6821 17.6222 75.498 17.8058 75.498 17.6222C75.3139 17.6222 75.498 17.4387 75.6821 17.4387C76.9711 16.3373 77.7077 17.0715 76.2346 18.3565C76.6029 18.1729 76.787 18.1729 76.9711 18.1729C77.5236 17.9894 75.8663 20.0086 75.1297 20.0086ZM75.8663 18.5401C75.6822 18.5401 75.6822 18.5401 75.8663 18.5401C75.6822 18.7236 75.498 19.6415 75.498 19.825C76.6029 18.9072 77.3394 17.6222 75.8663 18.5401ZM76.6029 17.0715C76.4187 17.0715 76.0504 17.2551 75.8663 17.4387C76.0504 17.4387 75.8663 18.1729 75.6821 18.3565C75.6821 18.3565 75.8663 18.1729 76.0504 18.1729C76.2346 17.9894 76.4187 17.8058 76.6029 17.6222C76.6029 17.4387 76.787 17.0715 76.6029 17.0715ZM23.57 53.9682C23.3859 54.1518 23.0176 54.3353 22.6493 54.5189C22.6493 54.7025 22.281 55.9874 22.281 55.8039L22.8334 53.2339C23.0176 53.0504 24.1224 52.3161 24.1224 52.4997L23.3859 53.0504C23.2017 53.0504 23.2017 53.2339 23.0176 53.4175C23.0176 53.6011 22.8334 54.1518 22.8334 54.3353C23.2017 54.1518 23.9383 53.6011 23.57 53.9682ZM25.0431 53.4175C26.7004 52.3161 26.7004 52.4997 24.859 53.7846C24.1224 54.1518 23.9383 54.1518 25.0431 53.4175ZM26.148 51.949L25.7797 52.1325C23.3859 54.1518 24.3066 52.8668 26.148 51.949C26.3321 51.7654 26.3321 51.949 26.148 51.949ZM26.5163 53.4175C26.3321 53.4175 26.3321 53.2339 26.3321 53.2339C26.3321 53.2339 26.5163 53.2339 26.7004 53.2339C26.5163 53.0504 26.7004 52.8668 26.7004 52.6832C27.0687 51.3983 27.0687 51.0312 27.0687 51.0312C26.8846 51.2147 26.7004 51.0312 26.8846 50.8476C28.1735 49.7462 28.9101 50.4805 27.437 51.7654C29.4625 50.4805 27.6211 53.4175 26.5163 53.4175ZM27.2528 51.949C27.0687 52.1325 26.8846 53.0504 26.8846 53.2339C28.1735 52.4997 28.9101 51.0312 27.2528 51.949ZM27.2528 50.8476C27.437 50.8476 27.2528 51.5819 27.0687 51.7654C27.2528 51.5819 27.6211 51.2147 27.8053 51.0312C28.3577 50.664 28.1735 50.2969 27.2528 50.8476ZM30.015 52.3161C29.2784 53.2339 29.6467 52.3161 30.015 51.0312C29.4625 52.1325 28.5418 52.3161 29.0943 51.0312C29.2784 50.664 29.6467 49.9298 30.015 49.7462C30.3832 49.5626 30.5674 50.1133 30.1991 49.9298C29.6467 49.7462 28.726 52.1325 29.2784 51.7654C29.8308 51.3983 30.1991 50.2969 30.1991 50.2969C30.3832 50.1133 30.1991 50.8476 30.015 51.2147C29.8308 51.7654 29.6467 52.3161 29.6467 52.4997C30.3832 51.7654 30.5674 51.5818 30.015 52.3161ZM32.2247 48.4612C32.593 48.8284 32.4088 50.2969 31.4881 50.8476C30.7515 51.2147 30.7515 50.664 30.7515 49.9298C30.7515 49.5626 30.7515 49.3791 30.7515 49.3791L31.1198 49.1955C31.1198 49.1955 31.1198 50.1133 31.1198 50.2969C31.1198 51.0312 32.0405 50.664 32.0405 49.3791C32.0405 49.0119 32.0405 48.8284 31.8564 48.6448L32.2247 48.4612ZM33.8819 47.727C33.6978 47.727 33.5137 47.9105 33.3295 48.0941C32.9612 48.4612 33.1454 48.6448 33.5137 48.6448C34.2502 48.6448 33.8819 49.3791 33.3295 49.7462C33.1454 49.9298 32.593 49.9298 32.593 49.7462C32.593 49.7462 32.5929 49.5626 32.7771 49.5626C33.3295 49.7462 34.2502 48.6448 33.3295 48.8284C33.1454 48.8284 32.9612 48.8284 32.9612 48.6448C32.9612 48.2777 33.5137 47.727 33.6978 47.5434C34.0661 47.3598 34.0661 47.9105 33.8819 47.727ZM34.8027 46.9927C34.9868 46.9927 33.8819 51.2147 34.4344 47.9105C34.4344 47.727 34.6185 46.8092 34.8027 46.9927ZM34.9868 46.442C34.8027 46.442 34.6185 46.442 34.8027 46.2585C34.9868 45.8913 35.1709 46.2584 34.9868 46.442ZM36.8282 45.8913C37.0124 46.0749 36.8282 46.6256 36.8282 46.8091C36.4599 48.0941 36.2758 47.9105 36.4599 47.5434C36.4599 47.1763 36.8282 46.442 36.8282 46.0749C36.8282 45.3406 36.0916 46.8091 35.9075 47.3598C34.8027 49.5626 35.7234 47.5434 35.7234 46.442C35.7234 46.2584 35.9075 46.2584 35.9075 46.442C35.9075 46.8091 35.7234 47.5434 35.5392 47.727C35.5392 47.5434 36.2758 45.7078 36.8282 45.8913ZM40.1428 43.8721C40.1428 44.0557 40.1428 44.7899 40.1428 45.1571C40.1428 45.3406 40.1428 45.5242 40.3269 45.3406V45.5242C40.1428 45.7078 39.9586 45.7078 39.9586 45.3406C39.5903 46.2585 38.4855 46.6256 38.4855 45.5242C38.4855 44.4228 39.5903 43.6885 39.9586 44.0557C39.9586 43.8721 39.9586 43.8721 39.9586 43.6885L40.1428 43.8721ZM39.7745 45.3406C39.7745 45.1571 39.7745 44.9735 39.7745 44.7899C39.5903 44.2392 38.8538 44.7899 38.8538 45.7078C38.6696 46.442 39.5903 46.0749 39.7745 45.3406ZM27.0687 56.9052C28.3577 55.9874 28.5418 55.9874 27.6211 56.7217C25.9638 57.8231 25.9638 57.6395 27.0687 56.9052ZM27.8053 55.8039C25.2273 57.6395 26.7004 56.171 28.1735 55.4367C28.3577 55.2532 28.5418 55.2532 27.8053 55.8039ZM28.5418 56.9052C28.3577 56.9052 28.3577 56.7217 28.3577 56.7217C28.3577 56.7217 28.5418 56.7217 28.726 56.7217C28.5418 56.5381 28.726 56.3545 28.726 56.171C29.0943 54.886 29.0943 54.5189 29.0943 54.5189C28.9101 54.7025 28.726 54.5189 28.9101 54.3353C30.1991 53.2339 30.9357 53.9682 29.4625 55.2532C31.4881 53.9682 29.6467 56.9052 28.5418 56.9052ZM29.2784 55.4367C29.0943 55.6203 28.9101 56.5381 28.9101 56.7217C30.1991 55.9874 30.9357 54.5189 29.2784 55.4367ZM29.2784 54.3353C29.4625 54.3353 29.2784 55.0696 29.0943 55.2532C29.2784 55.0696 29.6467 54.7025 29.8308 54.5189C30.3832 54.1518 30.1991 53.7846 29.2784 54.3353ZM30.7515 55.2532C30.7515 55.2532 30.7515 55.0696 30.7515 55.2532C31.4881 55.4367 32.7771 54.3353 31.6722 53.9682C31.304 53.7846 31.1198 53.6011 31.304 53.4175C31.4881 53.0504 32.4088 52.3161 32.4088 52.4997L31.8564 53.0504C31.304 53.6011 31.4881 53.6011 31.8564 53.7846C32.0405 53.7846 32.2247 53.9682 32.2247 54.1518C32.4088 55.0696 30.7515 55.9874 30.7515 55.2532ZM34.2502 53.7846C33.6978 54.5189 32.7771 54.7025 32.7771 53.7846C32.7771 52.8668 33.6978 52.1325 34.2502 51.949V52.3161C32.9612 52.3161 32.7771 55.0696 34.2502 53.6011V53.7846ZM34.6185 53.4175C34.0661 52.8668 35.3551 50.8476 35.7234 51.2147C36.2758 51.7654 34.9868 53.7846 34.6185 53.4175ZM34.8027 53.2339C35.3551 52.8668 35.9075 51.2147 35.3551 51.3983C34.6185 51.949 34.4344 53.2339 34.8027 53.2339ZM37.3806 50.4805C37.1965 50.4805 37.0124 50.664 36.8282 50.8476C36.4599 51.2147 36.6441 51.3983 37.0124 51.3983C37.7489 51.3983 37.3806 52.1325 36.8282 52.4997C36.6441 52.6832 36.0916 52.6832 36.0916 52.4997C36.0916 52.4997 36.0916 52.3161 36.2758 52.3161C36.8282 52.3161 37.5648 51.3983 36.8282 51.3983C36.6441 51.3983 36.4599 51.3983 36.4599 51.2147C36.4599 50.8476 37.0124 50.2969 37.1965 50.1133C37.5648 49.9298 37.5648 50.4805 37.3806 50.4805ZM40.6952 48.2777C40.6952 48.4612 40.6952 49.1955 40.6952 49.5626C40.6952 49.7462 40.6952 49.9298 40.8793 49.7462V49.9298C40.6952 50.1133 40.5111 50.1133 40.5111 49.7462C40.3269 50.1133 40.1428 50.2969 39.9586 50.4805C38.8538 51.0312 39.0379 49.0119 39.9586 48.4612C40.1428 48.2777 40.5111 48.2777 40.5111 48.4612C40.5111 48.2777 40.5111 48.2777 40.5111 48.0941L40.6952 48.2777ZM39.7745 50.4805C39.9586 50.2969 40.1428 49.9298 40.3269 49.7462C40.5111 49.1955 40.3269 48.8284 39.7745 49.0119C39.0379 49.3791 39.0379 50.8476 39.7745 50.4805ZM49.3499 42.5871C49.9023 42.4036 50.4547 42.5871 50.4547 43.1378C50.4547 43.6885 50.2706 44.0557 49.9023 44.4228C49.7181 44.6064 49.534 44.7899 49.3499 44.9735C49.1657 45.1571 49.3499 45.5242 49.1657 45.7078C49.1657 45.7078 49.1657 45.7078 49.1657 45.5242C49.1657 45.1571 49.1657 44.9735 48.7974 45.1571C48.6133 45.3406 48.4292 45.3406 48.0609 45.1571C47.8767 44.9735 47.8767 44.7899 47.8767 44.4228C47.8767 44.0557 48.0609 43.6885 48.245 43.3214C48.4292 43.1378 48.6133 42.9543 48.7974 42.7707C48.9816 42.7707 49.1657 42.5871 49.3499 42.5871ZM48.9816 43.3214C48.7974 43.3214 48.6133 43.505 48.4292 43.6885C48.245 43.8721 48.245 44.2392 48.245 44.4228C48.245 45.1571 48.9816 44.9735 48.9816 44.4228C48.9816 44.2392 49.1657 43.505 48.9816 43.3214ZM49.534 44.4228C49.7181 44.4228 49.9023 44.2392 50.0864 43.8721C50.0864 43.6885 50.2706 43.1378 50.0864 42.9543C49.9023 42.7707 49.534 42.7707 49.3499 42.9543C49.1657 43.1378 49.1657 43.8721 49.3499 44.0557C49.3499 44.2392 49.3499 44.4228 49.534 44.4228ZM25.0431 56.5381C25.5956 56.3545 26.148 56.5381 26.148 57.0888C26.148 57.6395 25.9638 58.0066 25.5956 58.3738C25.4114 58.5573 25.2273 58.7409 25.0431 58.9245C24.859 59.108 25.0431 59.4752 24.859 59.6587C24.859 59.6587 24.859 59.6587 24.859 59.4752C24.859 59.108 24.859 58.9245 24.4907 59.108C24.3066 59.2916 24.1224 59.2916 23.7541 59.108C23.57 58.9245 23.57 58.5573 23.57 58.3738C23.57 58.0066 23.7541 57.6395 23.9383 57.2724C24.1224 57.0888 24.3066 56.9052 24.4907 56.7217C24.6748 56.7217 24.859 56.7217 25.0431 56.5381ZM24.4907 57.4559C24.3066 57.4559 24.1224 57.6395 23.9383 57.8231C23.9383 58.0066 23.9383 58.1902 23.9383 58.5573C23.9383 59.2916 24.6748 59.108 24.6748 58.5573C24.6748 58.1902 24.6748 57.4559 24.4907 57.4559C24.6748 57.4559 24.4907 57.4559 24.4907 57.4559ZM25.0431 58.3738C25.2273 58.3738 25.4114 58.1902 25.5956 57.8231C25.5956 57.6395 25.7797 57.0888 25.5956 56.9052C25.4114 56.7217 25.0431 56.7217 24.859 56.9052C24.6748 57.0888 24.6748 57.8231 24.859 58.0066C24.859 58.3738 25.0431 58.3738 25.0431 58.3738ZM51.5596 42.7707C53.0327 41.8529 52.8486 42.0364 52.4803 42.4036C50.2706 43.8721 50.6389 43.505 51.5596 42.7707ZM51.0071 42.5871C51.0071 42.5871 50.823 42.5871 51.0071 42.5871C50.823 42.4036 52.4803 41.3022 52.6644 41.3022C53.401 40.9351 51.7437 42.22 51.0071 42.5871ZM53.401 42.4036C53.9534 42.0364 54.5058 41.4858 54.5058 41.4858C55.0583 41.1186 53.0327 43.1378 53.0327 42.4036C53.0327 42.22 53.401 40.3844 53.401 40.2008C53.401 40.0172 53.401 40.0172 53.401 40.0172C54.1376 40.5679 53.0327 42.7707 53.401 42.4036ZM55.6107 39.0994C55.6107 39.0994 55.6107 38.9158 55.6107 39.0994C55.7948 39.0994 55.7948 39.0994 55.6107 39.0994C55.7948 40.3844 54.69 43.505 55.4265 40.5679C55.6107 39.283 55.6107 39.0994 55.6107 39.0994ZM67.0275 29.0033C67.0275 29.1869 66.2909 29.554 66.1068 29.7376C66.1068 29.9211 66.1068 30.1047 65.9226 30.2883C65.7385 30.839 65.5543 31.2061 66.8433 30.1047C67.2116 29.7376 67.2116 29.9211 66.6592 30.4718C64.6336 32.1239 65.9226 29.9211 65.9226 28.8197C65.9226 28.6362 66.2909 28.269 66.6592 28.269C67.9482 27.5348 67.3958 28.0855 66.1068 28.8197C66.1068 29.0033 65.9226 29.554 65.9226 29.7376C66.1068 29.3704 67.0275 28.8197 67.0275 29.0033ZM68.1323 27.7183C68.3165 27.7183 67.7641 30.1047 67.5799 29.7376L67.9482 28.0855C67.9482 28.0855 67.9482 27.7183 68.1323 27.7183ZM68.3165 27.1676C68.1323 27.1676 67.9482 27.1676 68.1323 26.9841C68.3165 26.8005 68.5006 27.1676 68.3165 27.1676ZM70.342 27.3512C70.5262 27.1676 70.5262 27.1676 70.342 27.3512C70.342 27.5348 68.6848 28.6362 68.6848 28.6362C68.5006 28.4526 70.1579 27.3512 70.342 27.3512ZM70.1579 26.8005C67.5799 28.6362 69.053 27.1676 70.5262 26.4334C70.7103 26.2498 70.7103 26.2498 70.1579 26.8005ZM71.0786 26.9841C71.9993 24.047 72.1835 24.5977 72.5517 25.6991C72.92 26.617 72.92 26.617 72.1835 27.1676C70.5262 28.4526 70.8945 27.9019 71.0786 26.9841ZM71.9993 25.1484C71.631 25.8827 71.2627 26.9841 71.0786 27.7183C71.4469 27.5348 72.1835 26.9841 72.5517 26.617C72.3676 26.0663 72.1835 25.5156 71.9993 25.1484ZM75.498 22.7621V22.9456C76.9711 22.2114 76.9711 24.4142 75.498 25.332V25.5156L75.1297 25.6991V25.5156C73.6566 26.2498 73.6566 24.047 75.1297 23.1292V22.9456L75.498 22.7621ZM75.1297 23.3128C74.209 23.8635 74.0249 25.6991 75.1297 25.1484V23.3128ZM75.498 25.1484C76.4187 24.4142 76.6029 22.7621 75.498 23.3128V25.1484ZM67.9482 33.0417C68.1323 32.8582 68.1323 33.0417 67.9482 33.2253C67.7641 33.4089 67.3958 33.5924 67.2116 33.776C67.2116 34.1431 66.8433 34.8774 67.0275 34.8774C67.5799 34.5103 68.1323 33.9596 68.1323 33.9596C68.5006 33.776 67.2116 35.061 66.8433 35.061C66.6592 35.061 66.8433 34.5103 66.8433 34.3267C67.3958 32.491 66.8433 32.491 68.5006 31.7568C68.6848 31.5732 68.8689 31.7568 68.1323 32.1239C67.9482 32.3075 67.764 32.3075 67.764 32.491C67.5799 32.491 67.5799 32.6746 67.5799 32.6746C67.5799 32.8582 67.3958 33.4089 67.3958 33.5924C67.3958 33.4089 67.7641 33.2253 67.9482 33.0417ZM69.2372 31.7568C69.4213 31.7568 68.8689 33.776 68.6848 33.9596C68.6848 33.9596 68.5006 33.9596 68.6848 33.776C68.8689 32.6746 68.8689 32.8582 69.053 32.3075C69.053 32.1239 69.053 31.7568 69.2372 31.7568ZM69.4213 31.0225C69.6055 31.3897 69.053 31.3897 69.2372 31.0225C69.4213 30.839 69.4213 30.839 69.4213 31.0225ZM71.631 31.2061C71.631 31.2061 71.0786 31.7568 70.8945 31.7568C70.8945 31.7568 69.7896 32.6746 69.6055 32.491C69.6055 32.491 71.631 31.0225 71.631 31.2061ZM71.631 30.4718L71.2627 30.6554C68.8689 32.6746 69.7896 31.3897 71.631 30.4718C71.8152 30.2883 71.8152 30.4718 71.631 30.4718ZM72.1835 29.3704C73.8407 28.0855 74.0249 29.1869 73.2883 29.9211C74.209 29.554 74.0249 31.2061 72.1835 31.9403V29.3704ZM72.5517 30.2883C73.8407 29.554 73.6566 28.6362 72.5517 29.3704V30.2883ZM72.5517 31.5732C72.92 31.3897 73.4725 31.0225 73.4725 30.4718C73.4725 29.9211 72.92 30.2883 72.5517 30.4718V31.5732ZM74.0249 30.839C74.0249 30.839 74.0249 30.6554 74.0249 30.839C74.5773 28.4526 74.5773 27.7183 74.5773 27.7183C74.5773 27.7183 74.7614 27.7183 74.7614 27.9019C74.7614 28.4526 74.5773 29.3704 74.3932 30.6554C74.209 30.4718 74.209 30.839 74.0249 30.839ZM76.6029 27.5348C76.9711 27.9019 76.787 29.3704 75.8663 29.9211C75.498 30.1047 75.1297 30.1047 75.1297 29.554C75.1297 29.3704 75.1297 28.6362 75.1297 28.4526L75.498 28.269C75.498 28.269 75.498 29.1869 75.498 29.3704C75.498 29.7376 75.6822 29.7376 75.8663 29.7376C76.4187 29.3704 76.4187 28.269 76.2346 27.9019L76.6029 27.5348ZM26.148 61.1273C26.148 61.1273 25.9638 61.3108 25.9638 61.4944C25.7797 61.6779 25.4114 62.5958 25.2273 62.7793C25.4114 62.9629 26.148 63.33 25.9638 63.5136C25.7797 63.6972 25.2273 63.1465 25.2273 62.9629C24.859 63.6972 24.6748 64.0643 24.6748 64.2479C24.4907 64.615 24.3066 64.4314 24.4907 64.4314C24.4907 64.4314 24.6748 64.0643 25.2273 62.9629C25.0431 62.7793 24.4907 62.0451 24.6748 61.8615H24.859C24.859 62.0451 25.0431 62.2286 25.2273 62.5958C25.4114 62.2286 25.7797 61.4944 25.9638 61.3108C25.9638 60.9437 26.148 60.9437 26.148 61.1273ZM26.7004 62.7793C26.7004 62.9629 27.6211 62.2286 27.8053 62.2286C28.3577 61.678 27.8053 62.5958 26.8846 63.1465C26.7004 63.33 26.5163 63.33 26.5163 63.1465L27.0687 60.7601C27.437 60.2094 26.7004 62.4122 26.7004 62.7793ZM29.0943 60.7601C30.5674 59.8423 30.3832 60.0259 30.015 60.393C27.8053 61.8615 28.1735 61.3108 29.0943 60.7601ZM30.3832 59.2916L30.015 59.4752C27.2528 61.4944 28.726 60.0259 30.3832 59.2916C30.3832 59.108 30.3832 59.108 30.3832 59.2916ZM32.2247 59.6587C32.593 59.4752 32.7771 58.1902 32.2247 58.0066L32.593 57.8231C32.7771 57.8231 32.9612 58.1902 32.9612 58.5573C32.9612 59.8423 32.0405 60.393 31.8564 59.8423C31.8564 60.0259 31.6722 60.393 31.304 60.393C30.5674 60.9437 30.3832 59.4752 30.9357 58.7409L31.304 58.5573C30.9357 59.108 30.9357 60.393 31.304 60.2094C31.6722 60.0259 31.6722 59.2916 31.6722 58.9245L32.0405 58.7409C32.0405 59.108 31.8564 59.8423 32.2247 59.6587ZM33.6978 58.7409C34.2502 58.3738 34.8027 57.8231 34.8027 57.8231C34.9868 57.6395 34.6185 58.0066 34.4344 58.3738C34.0661 58.7409 33.3295 59.2916 33.3295 58.9245C33.3295 58.9245 33.8819 56.171 33.6978 56.5381C33.6978 56.5381 33.6978 56.3545 33.8819 56.5381C34.2502 56.7217 33.3295 59.108 33.6978 58.7409ZM37.1965 55.9874C37.1965 55.9874 36.6441 56.5381 36.4599 56.5381C36.4599 56.5381 35.3551 57.4559 35.1709 57.2724C35.1709 57.2724 37.1965 55.8039 37.1965 55.9874ZM35.5392 56.5381C35.3551 56.5381 35.3551 56.5381 35.5392 56.5381C35.3551 56.3545 37.0124 55.2532 37.1965 55.2532C37.9331 54.7025 36.0916 56.171 35.5392 56.5381ZM38.3013 54.3353L38.1172 54.5189C37.9331 54.5189 38.6696 53.4175 39.0379 53.6011C39.7745 53.9682 38.3013 55.8039 37.7489 56.3546C37.9331 56.171 38.8538 55.6203 39.0379 55.4367H39.2221C39.2221 55.6203 38.1172 56.3546 37.9331 56.3546H37.7489C37.7489 56.3546 37.7489 56.171 37.9331 56.171C38.3013 55.8039 38.3013 55.6203 38.6696 55.2532C39.4062 53.9682 39.0379 53.2339 38.3013 54.3353ZM40.3269 53.4175C39.0379 54.1518 40.5111 52.8668 41.8 52.3161C41.9842 52.1325 42.1683 52.3161 41.4318 52.6832V52.8668C41.2476 53.2339 41.2476 53.9682 41.4318 54.3353C41.6159 54.5189 41.2476 54.7025 41.2476 54.5189C41.0635 54.1518 41.2476 53.2339 41.4318 52.8668C41.2476 53.0504 40.8793 53.2339 40.5111 53.4175C40.5111 53.6011 40.5111 53.9682 40.5111 54.5189C40.3269 55.8039 39.7745 55.8039 40.1428 55.2532C40.3269 54.886 40.5111 54.3353 40.5111 53.7846C40.3269 53.6011 40.3269 53.4175 40.3269 53.4175ZM42.5366 53.7846C43.089 53.4175 43.6415 52.8668 43.6415 52.8668C44.1939 52.4997 42.1683 54.5189 42.1683 53.7846C42.1683 53.7846 42.7208 51.0312 42.5366 51.3983C42.5366 51.3983 42.5366 51.2147 42.7208 51.3983C43.089 51.7654 42.1683 53.9682 42.5366 53.7846ZM44.1939 51.2147C44.9305 53.0504 44.378 51.7654 44.7463 52.4997C44.9305 51.949 45.2987 51.2147 45.2987 50.664L45.667 50.4805C45.667 51.0312 45.2987 52.1325 44.9305 52.6832L44.5622 52.8668L43.8256 51.3983L44.1939 51.2147ZM46.2195 35.4281C46.2195 35.4281 46.2195 35.2445 45.2987 37.0802C45.2987 37.0802 45.4829 37.2637 45.667 37.2637C46.4036 37.8144 46.0353 37.998 45.1146 37.2637C44.9305 37.6309 44.1939 39.0994 44.1939 38.7323C44.1939 38.7323 44.5622 37.998 44.9305 37.2637C44.5622 36.8966 44.378 36.5295 44.378 36.3459C44.378 36.1624 44.5622 36.1624 44.5622 36.3459C44.5622 36.5295 44.7463 36.7131 44.9305 37.0802C45.1146 36.7131 45.4829 35.9788 45.667 35.7952C46.0353 35.2445 46.2195 35.4281 46.2195 35.4281ZM47.5084 35.061C47.6926 34.8774 47.8767 35.061 47.8767 35.061C47.8767 35.2445 47.8767 35.2445 47.6926 35.061C47.1402 34.8774 46.0353 37.8144 47.3243 36.5295L47.6926 36.1624C48.0609 35.9788 47.1402 37.0802 46.5877 37.0802C46.4036 37.0802 46.4036 36.8966 46.4036 36.7131C46.4036 36.5295 47.1402 35.4281 47.5084 35.061ZM49.9023 34.5103C50.0864 34.3267 50.2706 34.5103 49.9023 34.6938C46.7719 36.8966 48.4292 35.4281 49.9023 34.5103ZM50.0864 33.776L49.7181 33.9596C48.9816 34.5103 48.4292 34.8774 48.245 34.8774H48.0609C48.245 34.8774 49.9023 33.776 50.0864 33.776C50.2706 33.5924 50.2706 33.776 50.0864 33.776ZM50.823 34.5103C50.823 33.9596 51.0071 33.2253 51.0071 32.6746C51.0071 32.491 51.1913 32.491 51.1913 32.6746C51.0071 34.8774 50.6389 35.7952 50.823 34.5103ZM51.5596 34.8774C51.3754 34.8774 52.8486 30.839 52.8486 31.0225C52.8486 30.839 53.0327 31.0225 53.0327 31.2061L51.7437 34.6938C51.7437 34.8774 51.7437 35.061 51.5596 34.8774ZM54.8741 32.6746C55.2424 32.491 55.4265 31.2061 54.8741 31.0225L55.2424 30.839C55.4265 30.839 55.6107 31.2061 55.6107 31.5732C55.6107 32.8582 54.69 33.4089 54.5058 32.8582C54.5058 33.0417 54.3217 33.4089 53.9534 33.4089C53.2168 33.9596 53.0327 32.491 53.5851 31.7568L53.9534 31.5732C53.7693 31.9403 53.5851 32.3075 53.5851 32.6746C53.5851 33.5924 54.3217 33.2253 54.3217 32.491V31.7568L54.69 31.5732C54.5058 32.1239 54.3217 32.8582 54.8741 32.6746ZM57.6362 29.0033C57.4521 29.0033 57.0838 29.3704 57.0838 29.554C55.7948 31.3897 56.5314 32.1239 57.4521 31.0225C58.1887 30.1047 57.6362 31.3897 56.8997 31.7568C55.4265 32.491 56.3473 29.554 57.6362 29.0033C57.6362 28.8197 57.8204 29.0033 57.6362 29.0033ZM44.7463 40.7515C45.1146 40.5679 44.378 43.505 44.378 43.3214C44.1939 43.3214 44.5622 42.22 44.5622 42.0364C44.7463 40.9351 44.7463 40.7515 44.7463 40.7515ZM47.6926 40.5679C47.5084 41.6693 47.1402 41.8529 47.3243 41.3022C47.6926 40.2008 47.6926 39.0994 46.956 40.7515C46.2194 42.0364 46.0353 43.1378 46.4036 41.3022C46.5877 40.5679 46.4036 40.2008 46.0353 41.1186C45.8512 41.4858 45.1146 42.9543 45.1146 42.9543C44.9305 43.1378 45.2987 41.6693 45.2987 41.4858C45.2987 40.7515 45.667 40.7515 45.2987 42.5871C45.4829 42.22 46.0353 40.7515 46.4036 40.3844C46.5877 40.3844 46.7719 40.3844 46.7719 40.7515C46.7719 40.9351 46.7719 41.1186 46.5877 41.3022C46.7719 40.7515 46.956 40.3844 47.1402 40.2008C47.6926 39.283 48.0609 39.283 47.6926 40.5679ZM49.7181 39.6501C48.9816 41.3022 47.6926 40.9351 49.1657 38.9158C49.9023 37.8144 50.2706 38.3651 50.0864 38.9158C50.0864 39.4665 49.9023 39.0994 49.9023 39.8337C49.9023 40.0172 49.9023 40.0172 49.7181 40.0172C49.7181 40.2008 49.7181 39.6501 49.7181 39.6501ZM49.9023 38.9158C49.9023 38.7323 49.9023 38.7323 49.9023 38.5487C49.7181 38.3651 49.3499 38.7323 49.3499 39.0994C47.8767 41.1186 49.1657 40.9351 49.9023 38.9158ZM51.5596 39.0994C51.5596 39.0994 51.3754 39.0994 51.0071 38.7323C50.823 39.0994 50.2706 40.2008 50.2706 39.8337L51.0071 38.7323C50.823 38.5487 50.4547 38.1816 50.6389 37.998C50.6389 37.998 50.823 37.8144 50.823 37.998C50.823 38.1816 51.0071 38.3651 51.1913 38.5487C51.1913 38.3651 51.7437 37.2637 51.9279 37.2637C52.2961 37.0802 51.7437 37.8144 51.5596 38.1816C51.3754 38.3651 51.3754 38.7323 51.1913 38.7323C51.9278 39.283 50.823 38.1816 51.5596 39.0994C51.7437 38.9158 51.7437 39.0994 51.5596 39.0994ZM51.9279 39.0994C51.9279 39.0994 53.2168 35.061 53.2168 35.2445C53.401 35.4281 52.8486 36.5295 52.8486 36.7131C52.4803 37.6309 52.4803 37.998 52.112 38.9158C52.112 39.0994 52.112 39.283 51.9279 39.0994ZM55.7948 34.6938C55.4265 35.4281 55.4265 35.7952 55.0583 36.5295C55.0583 36.713 54.69 37.6309 54.5058 37.8144H54.3217C54.1376 37.6309 54.1376 37.0802 54.1376 36.7131L53.9534 36.8966C53.5851 37.4473 53.5851 37.2637 53.7693 36.8966C53.9534 36.5295 54.1376 36.3459 54.1376 36.7131C54.1376 36.8966 54.1376 36.8966 54.1376 37.0802C54.1376 37.2637 54.1376 37.2637 54.1376 37.4473C54.1376 37.6309 54.1376 37.6309 54.3217 37.8144C54.69 36.8966 54.8741 36.1624 55.2424 35.061C55.979 33.9596 55.979 34.1431 55.7948 34.6938ZM55.979 34.5103L55.7948 34.6938C55.6107 34.6938 55.7948 34.3267 55.979 34.3267C56.7155 33.4089 57.4521 33.9596 56.5314 35.2445C56.1631 35.7952 55.979 36.1624 55.6107 36.7131C55.6107 36.7131 55.979 36.5295 56.1631 36.3459C57.268 35.6117 57.0838 35.7952 56.3473 36.3459C55.2424 37.0802 55.0583 37.0802 55.7948 36.1624C57.268 34.1431 56.7155 33.5924 55.979 34.5103ZM57.4521 36.1624C57.4521 35.9788 57.8204 35.6117 57.6362 35.6117H57.4521C57.4521 35.4281 57.8204 35.2445 57.8204 35.6117C57.8204 35.7952 57.8204 35.9788 57.6362 36.1624C57.268 36.5295 57.0838 36.7131 57.4521 36.1624ZM50.6389 49.3791C50.6389 49.5626 49.3499 50.4805 49.1657 50.4805C48.6133 50.2969 50.6389 48.2777 50.6389 47.727L50.0864 47.9105C49.9023 48.0941 49.3499 48.4612 49.3499 48.2777C49.3499 47.9105 51.3754 46.8092 50.823 48.0941C50.823 48.2777 49.3499 50.2969 49.3499 50.2969C49.3499 50.4805 50.6389 49.1955 50.6389 49.3791ZM51.7437 47.9105C54.1376 46.2585 52.4803 47.727 51.0071 48.6448C51.0071 48.4612 51.7437 48.0941 51.7437 47.9105ZM53.0327 46.6256L52.6644 46.8091C50.0864 48.6448 51.1913 47.5434 53.0327 46.6256C53.0327 46.442 53.0327 46.442 53.0327 46.6256ZM55.6107 44.7899C55.0583 46.0749 54.5058 47.5434 54.5058 47.5434C54.5058 47.727 54.3217 47.9105 54.1376 47.9105C53.9534 47.9105 53.7693 46.9927 53.7693 46.8091C53.5851 46.9927 53.5851 47.1763 53.5851 47.1763C53.401 47.5434 53.401 46.8091 53.9534 46.6256C54.1376 46.442 54.1376 46.8092 54.1376 46.9927C54.1376 47.1763 54.1376 47.5434 54.3217 47.727C54.69 46.8091 54.8741 46.0749 55.2424 44.9735C55.6107 44.2392 55.7948 44.2392 55.6107 44.7899ZM55.7948 46.6256H56.3473C56.3473 46.8091 55.7948 46.9927 55.4265 46.8091C54.69 46.442 55.2424 44.9735 55.6107 44.2392C56.5314 42.4036 56.8997 42.5871 56.7155 42.9543C56.3473 43.3214 56.1631 43.6885 55.7948 44.0557C55.4265 45.1571 54.8741 46.6256 55.7948 46.6256ZM58.7411 42.5871C58.7411 42.5871 58.7411 42.4036 57.8204 44.2392C57.8204 44.2392 58.0045 44.4228 58.1887 44.4228C58.9252 44.9735 58.557 45.1571 57.6362 44.4228C57.4521 44.7899 56.7155 46.2585 56.7155 45.8913C56.7155 45.8913 57.0838 45.1571 57.4521 44.4228C57.268 44.0557 57.0838 43.8721 57.0838 43.505C57.0838 43.3214 57.268 43.3214 57.268 43.505C57.268 43.6885 57.4521 43.8721 57.6362 44.2392C57.8204 43.8721 58.1887 43.1378 58.3728 42.9543C58.7411 42.4036 58.9252 42.5871 58.7411 42.5871ZM60.2142 42.22C60.5825 42.0364 60.7667 42.4036 60.3984 42.4036C59.8459 42.22 58.557 45.5242 60.2142 43.6885C60.3984 43.505 60.5825 43.505 60.2142 43.8721C59.846 44.2392 59.2935 44.6064 59.2935 44.0557C59.1094 43.6885 59.846 42.5871 60.2142 42.22ZM60.9508 42.7707C60.7667 42.7707 62.0557 41.6693 62.0557 41.8529C62.0557 42.0364 60.9508 42.7707 60.9508 42.7707ZM64.2654 39.4665C64.2654 39.4665 64.0812 39.6501 64.0812 39.8337C63.8971 40.0172 63.5288 40.9351 63.3447 41.1186C63.3447 41.1186 63.5288 41.3022 63.7129 41.3022C64.4495 41.8529 64.0812 41.8529 63.7129 41.6693C63.5288 41.6693 63.3446 41.4858 63.1605 41.3022C62.2398 43.1378 62.2398 42.7707 62.2398 42.5871C62.4239 42.22 62.7922 41.4858 62.9764 41.1186C62.7922 40.9351 62.6081 40.7515 62.6081 40.3844C62.6081 40.2008 62.7922 40.2008 62.7922 40.3844C62.7922 40.5679 62.9764 40.7515 63.1605 41.1186C63.3446 40.7515 63.7129 40.0172 63.8971 39.8337C64.2654 39.283 64.4495 39.4665 64.2654 39.4665ZM65.0019 41.1186C65.5543 40.7515 66.1068 40.2008 66.1068 40.2008C66.6592 39.8337 64.6336 41.8529 64.6336 41.1186C64.6336 41.1186 65.1861 38.3651 65.0019 38.7323C65.0019 38.7323 65.0019 38.5487 65.1861 38.7323C65.5544 39.0994 64.6336 41.4858 65.0019 41.1186ZM66.2909 40.9351C66.2909 40.9351 67.3958 39.4665 67.5799 38.5487C67.7641 38.1816 67.9482 37.2637 67.5799 37.0802C67.5799 37.0802 67.3958 37.0802 67.2116 36.8966C67.0275 36.8966 67.2116 36.7131 67.2116 36.7131C67.764 36.3459 68.5006 37.4473 67.2116 39.6501C66.4751 40.9351 66.2909 40.9351 66.2909 40.9351ZM69.2372 36.8966L69.053 37.0802C68.8689 37.0802 69.053 36.7131 69.2372 36.7131C69.9738 35.7952 70.8945 36.3459 69.4213 38.3651C69.2372 38.5487 69.053 38.9158 68.8689 39.0994C69.053 39.0994 70.1579 37.998 70.1579 38.1816C70.1579 38.3651 69.053 39.0994 68.8689 39.0994C68.6848 39.0994 68.6848 39.0994 68.6848 39.0994C68.6848 38.9158 69.053 38.5487 69.2372 38.3651C70.5262 36.5295 69.7896 35.9788 69.2372 36.8966ZM71.8152 36.3459C71.8152 36.5295 71.8152 36.7131 71.631 36.8966C71.631 36.8966 71.631 37.2637 71.4469 37.2637C71.4469 37.2637 71.4469 37.2637 71.4469 37.0802C71.4469 37.2637 71.4469 37.0802 71.8152 36.3459C71.631 36.5295 70.8945 36.8966 70.8945 36.8966C70.8945 36.8966 70.7103 36.7131 70.8945 36.7131C71.8152 36.1624 71.631 36.3459 71.8152 35.4281C71.8152 35.2445 71.8152 35.2445 71.9993 35.2445C72.1835 35.2445 71.9993 35.7952 71.9993 35.9788C72.1835 35.7952 72.7359 35.4281 72.92 35.4281C72.7359 35.4281 72.92 35.6117 71.8152 36.3459ZM72.92 36.7131C72.7359 36.7131 73.1042 35.7952 73.1042 35.6117C73.2883 35.061 73.2883 34.6938 73.2883 34.5103C72.92 34.5103 73.8407 33.776 74.3932 33.776C74.7614 33.776 74.5773 34.3267 74.3932 34.5103C74.209 34.8774 74.0249 35.061 73.6566 35.4281C73.4725 35.6117 73.2883 35.6117 74.0249 35.7952C74.0249 35.7952 74.209 35.7952 74.3932 35.7952C74.5773 35.7952 74.5773 35.9788 74.3932 35.9788C74.209 36.1624 73.4724 35.7952 73.2883 35.6117C73.2883 35.7952 73.2883 35.7952 73.2883 35.9788C73.2883 36.1624 73.2883 36.3459 73.1042 36.5295C73.1042 36.5295 73.1042 36.7131 72.92 36.7131ZM73.4725 35.4281C73.6566 35.061 74.5773 34.5103 74.5773 33.9596C74.5773 33.5924 74.0249 33.9596 73.6566 34.3267C73.6566 34.5103 73.4725 35.2445 73.4725 35.4281ZM75.6821 33.0417L75.498 33.2253C75.3139 33.2253 76.0504 32.1239 76.4187 32.3075C76.6029 32.491 76.6029 32.8582 76.4187 33.2253C76.2346 33.5924 75.8663 34.1431 75.6821 34.5103C75.498 34.6938 75.3139 35.061 75.1297 35.2445C75.3139 35.061 76.2346 34.5103 76.4187 34.3267H76.6029C76.6029 34.5103 75.498 35.4281 75.1297 35.4281C74.9456 35.4281 75.3139 34.8774 75.498 34.6938C75.8663 34.3267 76.0504 33.9596 76.2346 33.5924C76.4187 33.2253 76.4187 32.6746 76.0504 32.8582C76.0504 32.8582 75.8663 33.0417 75.6821 33.0417Z" fill="white"/>
<path d="M41.432 98.2077L24.1226 88.2952C24.1226 88.1116 23.9385 88.1116 23.9385 87.7445L41.2478 97.657C41.2478 98.0242 41.432 98.2077 41.432 98.2077Z" fill="#B09529"/>
<path d="M41.2478 97.8405L23.9385 87.7444V85.5416L41.2478 95.4542V97.8405Z" fill="#D3AB34"/>
<path d="M41.9844 94.3529L24.675 84.4403L37.1967 77.0977L54.506 87.1938L41.9844 94.3529Z" fill="#FFCD39"/>
<path d="M41.2478 95.4541L23.9385 85.5416C23.9385 85.1745 24.3068 84.6238 24.675 84.4402L41.9844 94.3527C41.6161 94.5363 41.2478 95.087 41.2478 95.4541Z" fill="#EEC23E"/>
<path d="M41.9844 98.2076C41.6161 98.3912 41.2478 98.2076 41.2478 97.8405V95.4541C41.2478 95.087 41.6161 94.5363 41.9844 94.3527L54.506 87.1937V87.5608L54.1377 87.7444L53.4012 89.2129L54.1377 90.4978L54.506 90.6814V90.865L41.9844 98.2076Z" fill="#B09529"/>
<path d="M41.4319 97.8406C41.4319 98.0242 41.4319 98.0242 41.4319 98.0242H41.6161L54.1377 90.8651L53.7695 90.6816L53.0329 89.5802L53.7695 87.7445L41.8002 94.72C41.6161 94.72 41.4319 94.9036 41.4319 95.0871C41.2478 95.2707 41.2478 95.4542 41.2478 95.6378L41.4319 97.8406Z" fill="#B09529"/>
<path d="M54.1376 87.561L42.1684 94.5365C41.9842 94.5365 41.8001 94.72 41.8001 94.9036C41.616 95.0872 41.616 95.2707 41.616 95.4543V97.6571L54.1376 90.498V87.561Z" fill="#FFFFFA"/>
<path d="M32.4093 83.89L36.6446 81.5037L36.2763 81.3201L32.041 83.7065L32.4093 83.89Z" fill="#60522B"/>
<path d="M32.225 85.1748L39.0382 81.32L38.6699 81.1364L31.8567 84.9913L32.225 85.1748Z" fill="#60522B"/>
<path d="M33.3301 85.9091L39.9592 82.0542L39.5909 81.8707L32.9618 85.7255L33.3301 85.9091Z" fill="#60522B"/>
</svg>
